{
	"asset":{
		"generator":"Khronos glTF Blender I/O v4.2.70",
		"version":"2.0"
	},
	"scene":0,
	"scenes":[
		{
			"name":"Scene",
			"nodes":[
				1
			]
		}
	],
	"nodes":[
		{
			"mesh":0,
			"name":"Glass"
		},
		{
			"children":[
				0
			],
			"mesh":1,
			"name":"Body"
		}
	],
	"materials":[
		{
			"alphaMode":"BLEND",
			"name":"Glass",
			"pbrMetallicRoughness":{
				"baseColorTexture":{
					"index":0
				},
				"metallicRoughnessTexture":{
					"index":1
				}
			}
		},
		{
			"doubleSided":true,
			"name":"Interior",
			"pbrMetallicRoughness":{
				"baseColorTexture":{
					"index":2
				},
				"metallicRoughnessTexture":{
					"index":3
				}
			}
		},
		{
			"doubleSided":true,
			"name":"Body",
			"pbrMetallicRoughness":{
				"baseColorTexture":{
					"index":4
				},
				"metallicRoughnessTexture":{
					"index":5
				}
			}
		}
	],
	"meshes":[
		{
			"name":"Plane.006",
			"primitives":[
				{
					"attributes":{
						"POSITION":0,
						"NORMAL":1,
						"TEXCOORD_0":2
					},
					"indices":3,
					"material":0
				}
			]
		},
		{
			"name":"BodyMesh",
			"primitives":[
				{
					"attributes":{
						"POSITION":4,
						"NORMAL":5,
						"TEXCOORD_0":6
					},
					"indices":7,
					"material":1
				},
				{
					"attributes":{
						"POSITION":8,
						"NORMAL":9,
						"TEXCOORD_0":10
					},
					"indices":11,
					"material":2
				}
			]
		}
	],
	"textures":[
		{
			"sampler":0,
			"source":0
		},
		{
			"sampler":0,
			"source":1
		},
		{
			"sampler":0,
			"source":2
		},
		{
			"sampler":0,
			"source":3
		},
		{
			"sampler":0,
			"source":4
		},
		{
			"sampler":0,
			"source":5
		}
	],
	"images":[
		{
			"mimeType":"image/png",
			"name":"sportcar.017_Glass_BaseColor",
			"uri":"sportcar_017_Glass_BaseColor.png"
		},
		{
			"mimeType":"image/png",
			"name":"sportcar.017_Glass_Metallic-sportcar.017_Glass_Roughness",
			"uri":"sportcar_017_Glass_Metallic-sportcar_017_Glass_Roughness.png"
		},
		{
			"mimeType":"image/png",
			"name":"sportcar.017_Interior_BaseColor",
			"uri":"sportcar_017_Interior_BaseColor.png"
		},
		{
			"mimeType":"image/png",
			"name":"sportcar.017_Interior_Metallic-sportcar.017_Interior_Roughness",
			"uri":"sportcar_017_Interior_Metallic-sportcar_017_Interior_Roughness.png"
		},
		{
			"mimeType":"image/png",
			"name":"sportcar.017_Body_BaseColor",
			"uri":"sportcar_017_Body_BaseColor.png"
		},
		{
			"mimeType":"image/png",
			"name":"sportcar.017_Body_Metallic-sportcar.017_Body_Roughness",
			"uri":"sportcar_017_Body_Metallic-sportcar_017_Body_Roughness.png"
		}
	],
	"accessors":[
		{
			"bufferView":0,
			"componentType":5126,
			"count":260,
			"max":[
				0.8748535513877869,
				1.2698460817337036,
				1.9968050718307495
			],
			"min":[
				-0.8748535513877869,
				0.6310759782791138,
				-1.706344723701477
			],
			"type":"VEC3"
		},
		{
			"bufferView":1,
			"componentType":5126,
			"count":260,
			"type":"VEC3"
		},
		{
			"bufferView":2,
			"componentType":5126,
			"count":260,
			"type":"VEC2"
		},
		{
			"bufferView":3,
			"componentType":5123,
			"count":636,
			"type":"SCALAR"
		},
		{
			"bufferView":4,
			"componentType":5126,
			"count":1028,
			"max":[
				0.7636280655860901,
				1.2758208513259888,
				0.6617040634155273
			],
			"min":[
				-0.7636280655860901,
				0.2785170078277588,
				-1.311888575553894
			],
			"type":"VEC3"
		},
		{
			"bufferView":5,
			"componentType":5126,
			"count":1028,
			"type":"VEC3"
		},
		{
			"bufferView":6,
			"componentType":5126,
			"count":1028,
			"type":"VEC2"
		},
		{
			"bufferView":7,
			"componentType":5123,
			"count":1890,
			"type":"SCALAR"
		},
		{
			"bufferView":8,
			"componentType":5126,
			"count":4392,
			"max":[
				0.966627836227417,
				1.317612648010254,
				2.2047512531280518
			],
			"min":[
				-0.966627836227417,
				0.14671389758586884,
				-1.875124454498291
			],
			"type":"VEC3"
		},
		{
			"bufferView":9,
			"componentType":5126,
			"count":4392,
			"type":"VEC3"
		},
		{
			"bufferView":10,
			"componentType":5126,
			"count":4392,
			"type":"VEC2"
		},
		{
			"bufferView":11,
			"componentType":5123,
			"count":7800,
			"type":"SCALAR"
		}
	],
	"bufferViews":[
		{
			"buffer":0,
			"byteLength":3120,
			"byteOffset":0,
			"target":34962
		},
		{
			"buffer":0,
			"byteLength":3120,
			"byteOffset":3120,
			"target":34962
		},
		{
			"buffer":0,
			"byteLength":2080,
			"byteOffset":6240,
			"target":34962
		},
		{
			"buffer":0,
			"byteLength":1272,
			"byteOffset":8320,
			"target":34963
		},
		{
			"buffer":0,
			"byteLength":12336,
			"byteOffset":9592,
			"target":34962
		},
		{
			"buffer":0,
			"byteLength":12336,
			"byteOffset":21928,
			"target":34962
		},
		{
			"buffer":0,
			"byteLength":8224,
			"byteOffset":34264,
			"target":34962
		},
		{
			"buffer":0,
			"byteLength":3780,
			"byteOffset":42488,
			"target":34963
		},
		{
			"buffer":0,
			"byteLength":52704,
			"byteOffset":46268,
			"target":34962
		},
		{
			"buffer":0,
			"byteLength":52704,
			"byteOffset":98972,
			"target":34962
		},
		{
			"buffer":0,
			"byteLength":35136,
			"byteOffset":151676,
			"target":34962
		},
		{
			"buffer":0,
			"byteLength":15600,
			"byteOffset":186812,
			"target":34963
		}
	],
	"samplers":[
		{
			"magFilter":9729,
			"minFilter":9987
		}
	],
	"buffers":[
		{
			"byteLength":202412,
			"uri":"sportcar.017.bin"
		}
	]
}
