{
	"asset":{
		"generator":"Khronos glTF Blender I/O v4.2.70",
		"version":"2.0"
	},
	"scene":0,
	"scenes":[
		{
			"name":"Scene",
			"nodes":[
				0
			]
		}
	],
	"nodes":[
		{
			"mesh":0,
			"name":"WheelFL"
		}
	],
	"materials":[
		{
			"doubleSided":true,
			"name":"Wheels",
			"pbrMetallicRoughness":{
				"baseColorTexture":{
					"index":0
				},
				"metallicRoughnessTexture":{
					"index":1
				}
			}
		}
	],
	"meshes":[
		{
			"name":"Circle.001",
			"primitives":[
				{
					"attributes":{
						"POSITION":0,
						"NORMAL":1,
						"TEXCOORD_0":2
					},
					"indices":3,
					"material":0
				}
			]
		}
	],
	"textures":[
		{
			"sampler":0,
			"source":0
		},
		{
			"sampler":0,
			"source":1
		}
	],
	"images":[
		{
			"mimeType":"image/png",
			"name":"sportcar.017_Wheels_BaseColor",
			"uri":"sportcar_017_Wheels_BaseColor.png"
		},
		{
			"mimeType":"image/png",
			"name":"sportcar.017_Wheels_Metallic-sportcar.017_Wheels_Roughness",
			"uri":"sportcar_017_Wheels_Metallic-sportcar_017_Wheels_Roughness.png"
		}
	],
	"accessors":[
		{
			"bufferView":0,
			"componentType":5126,
			"count":769,
			"max":[
				0.20300650596618652,
				0.31385424733161926,
				0.31385427713394165
			],
			"min":[
				-0.005574643611907959,
				-0.31385427713394165,
				-0.31385424733161926
			],
			"type":"VEC3"
		},
		{
			"bufferView":1,
			"componentType":5126,
			"count":769,
			"type":"VEC3"
		},
		{
			"bufferView":2,
			"componentType":5126,
			"count":769,
			"type":"VEC2"
		},
		{
			"bufferView":3,
			"componentType":5123,
			"count":1200,
			"type":"SCALAR"
		}
	],
	"bufferViews":[
		{
			"buffer":0,
			"byteLength":9228,
			"byteOffset":0,
			"target":34962
		},
		{
			"buffer":0,
			"byteLength":9228,
			"byteOffset":9228,
			"target":34962
		},
		{
			"buffer":0,
			"byteLength":6152,
			"byteOffset":18456,
			"target":34962
		},
		{
			"buffer":0,
			"byteLength":2400,
			"byteOffset":24608,
			"target":34963
		}
	],
	"samplers":[
		{
			"magFilter":9729,
			"minFilter":9987
		}
	],
	"buffers":[
		{
			"byteLength":27008,
			"uri":"sportcar.017-wheel.bin"
		}
	]
}
