<svg width="687" height="275" viewBox="0 0 687 275" fill="none" xmlns="http://www.w3.org/2000/svg">
<path d="M71.1956 -6.10352e-05C85.1903 -6.10352e-05 96.9663 1.53594 106.524 4.60794C116.252 7.50928 124.017 12.3733 129.82 19.2C135.793 26.0266 140.145 35.3279 142.876 47.1039C145.606 58.7093 146.972 73.3013 146.972 90.8799C146.972 108.459 145.606 123.136 142.876 134.912C140.145 146.517 135.793 155.733 129.82 162.56C124.017 169.387 116.252 174.336 106.524 177.408C96.9663 180.309 85.1903 181.76 71.1956 181.76C57.713 181.76 45.3396 181.504 34.0756 180.992C22.8116 180.48 12.0596 179.883 1.81964 179.2L18.2036 150.272C24.689 150.613 32.369 150.955 41.2436 151.296C50.289 151.467 60.273 151.552 71.1956 151.552C79.8996 151.552 86.7263 149.845 91.6756 146.432C96.7956 142.848 100.38 136.619 102.428 127.744C104.646 118.869 105.756 106.581 105.756 90.8799C105.756 75.1786 104.646 62.8906 102.428 54.0159C100.38 45.1413 96.7956 38.9119 91.6756 35.3279C86.7263 31.7439 79.8996 29.952 71.1956 29.952C60.785 29.952 51.4836 30.0373 43.2916 30.2079C35.0996 30.2079 27.0783 30.2079 19.2276 30.2079L1.81964 2.55994C12.0596 1.87728 22.7263 1.27995 33.8196 0.767944C45.0836 0.255941 57.5423 -6.10352e-05 71.1956 -6.10352e-05ZM40.9876 2.55994V179.2H1.81964V2.55994H40.9876ZM211.386 52.7359V135.936C211.386 141.227 212.495 144.981 214.714 147.2C217.103 149.419 220.858 150.528 225.978 150.528C231.268 150.528 236.474 149.589 241.594 147.712C246.884 145.664 253.37 142.507 261.05 138.24L264.122 158.976C254.906 166.997 245.86 172.971 236.986 176.896C228.111 180.821 218.98 182.784 209.594 182.784C185.53 182.784 173.498 171.008 173.498 147.456V52.7359H211.386ZM295.098 52.7359V179.2H265.146L260.794 154.368L257.21 150.784V52.7359H295.098ZM375.424 17.6639V138.752C375.424 143.36 376.448 146.688 378.496 148.736C380.714 150.613 384.298 151.552 389.248 151.552H405.632L409.728 177.152C406.656 178.176 402.901 179.029 398.464 179.712C394.026 180.565 389.589 181.163 385.152 181.504C380.714 182.016 376.96 182.272 373.888 182.272C362.453 182.272 353.493 179.2 347.008 173.056C340.693 166.912 337.536 158.293 337.536 147.2L337.28 17.6639H375.424ZM410.752 52.7359V77.5679H315.264V54.0159L339.84 52.7359H410.752ZM489.896 49.4079C494.504 49.4079 499.538 49.6639 505 50.1759C510.461 50.5173 515.922 51.2853 521.384 52.4799C527.016 53.5039 532.136 55.0399 536.744 57.0879L532.648 80.896C525.821 80.7253 519.25 80.5546 512.936 80.3839C506.792 80.2133 501.245 80.1279 496.296 80.1279C488.616 80.1279 482.557 81.1519 478.12 83.1999C473.682 85.2479 470.44 88.9173 468.392 94.2079C466.514 99.3279 465.576 106.496 465.576 115.712C465.576 125.099 466.514 132.437 468.392 137.728C470.44 143.019 473.682 146.688 478.12 148.736C482.557 150.784 488.616 151.808 496.296 151.808C499.026 151.808 502.525 151.723 506.792 151.552C511.058 151.381 515.666 151.211 520.616 151.04C525.565 150.699 530.429 150.187 535.208 149.504L538.792 173.568C531.965 176.64 524.2 178.859 515.496 180.224C506.792 181.589 498.173 182.272 489.64 182.272C473.938 182.272 461.394 180.139 452.008 175.872C442.792 171.435 436.136 164.352 432.04 154.624C427.944 144.896 425.896 131.925 425.896 115.712C425.896 99.4986 427.944 86.5279 432.04 76.7999C436.306 67.0719 443.133 60.0746 452.52 55.8079C461.906 51.5413 474.365 49.4079 489.896 49.4079ZM649.33 49.4079C673.223 49.4079 685.17 61.0986 685.17 84.4799V179.2H647.026V96.256C647.026 90.6239 646.002 86.7839 643.954 84.7359C642.076 82.5173 638.663 81.4079 633.714 81.4079C628.252 81.4079 622.62 82.4319 616.818 84.4799C611.015 86.5279 603.847 89.8559 595.314 94.4639L591.986 74.7519C601.372 66.5599 610.93 60.3306 620.658 56.0639C630.386 51.6266 639.943 49.4079 649.33 49.4079ZM599.154 -6.10352e-05L599.41 43.7759C599.41 50.4319 598.983 56.7466 598.13 62.7199C597.447 68.6933 596.594 73.7279 595.57 77.8239L599.154 81.1519V179.2H561.266V-6.10352e-05H599.154Z" fill="#6DC5A7"/>
<path d="M12.24 204V245.28C12.24 246.613 12.6133 247.627 13.36 248.32C14.1067 249.013 15.1733 249.36 16.56 249.36H35.84L36.4 258.56C32.6134 258.987 28.64 259.227 24.48 259.28C20.3733 259.387 16.2667 259.44 12.16 259.44C8.16002 259.44 5.12002 258.373 3.04001 256.24C1.01335 254.053 1.4782e-05 251.28 1.4782e-05 247.92V204H12.24ZM63.2106 218.64C66.5173 218.64 69.3173 219.093 71.6106 220C73.904 220.853 75.6373 222.347 76.8106 224.48C78.0373 226.56 78.6506 229.44 78.6506 233.12V259.2H69.2106L67.5306 250.64L66.7306 249.44V233.04C66.7306 231.173 66.2773 229.813 65.3706 228.96C64.5173 228.107 62.864 227.68 60.4106 227.68C58.384 227.68 55.8506 227.76 52.8106 227.92C49.7706 228.027 46.6506 228.187 43.4506 228.4L42.3306 220.56C44.2506 220.187 46.464 219.867 48.9706 219.6C51.4773 219.333 53.984 219.12 56.4906 218.96C58.9973 218.747 61.2373 218.64 63.2106 218.64ZM73.7706 234.88L73.6906 241.52L56.0906 241.6C54.6506 241.6 53.6106 241.947 52.9706 242.64C52.384 243.333 52.0906 244.267 52.0906 245.44V247.36C52.0906 248.693 52.464 249.733 53.2106 250.48C53.9573 251.173 55.1573 251.52 56.8106 251.52C58.1973 251.52 59.6906 251.227 61.2906 250.64C62.944 250.053 64.5706 249.227 66.1706 248.16C67.7706 247.093 69.184 245.84 70.4106 244.4V249.52C69.9306 250.32 69.2106 251.333 68.2506 252.56C67.344 253.733 66.1706 254.907 64.7306 256.08C63.2906 257.2 61.6106 258.16 59.6906 258.96C57.7706 259.76 55.584 260.16 53.1306 260.16C50.7306 260.16 48.5706 259.733 46.6506 258.88C44.7306 258.027 43.2106 256.773 42.0906 255.12C40.9706 253.467 40.4106 251.413 40.4106 248.96V244.88C40.4106 241.733 41.4773 239.28 43.6106 237.52C45.744 235.76 48.6773 234.88 52.4106 234.88H73.7706ZM115.476 218.64C122.942 218.64 126.676 222.293 126.676 229.6V259.2H114.836V233.28C114.836 231.52 114.516 230.32 113.876 229.68C113.236 228.987 112.142 228.64 110.596 228.64C108.889 228.64 107.129 228.987 105.316 229.68C103.502 230.32 101.262 231.333 98.5956 232.72L98.0356 226.08C100.862 223.68 103.742 221.84 106.676 220.56C109.662 219.28 112.596 218.64 115.476 218.64ZM97.4756 219.68L98.8356 227.52L99.7956 228.56V259.2H87.9556V219.68H97.4756ZM153.603 218.64C158.189 218.64 161.816 219.067 164.483 219.92C167.203 220.773 169.149 222.107 170.323 223.92C171.549 225.733 172.163 228.16 172.163 231.2C172.163 234.133 171.576 236.533 170.403 238.4C169.229 240.213 167.256 241.547 164.483 242.4C161.763 243.253 158.109 243.68 153.523 243.68C148.936 243.68 145.256 243.253 142.483 242.4C139.763 241.547 137.789 240.213 136.563 238.4C135.389 236.587 134.803 234.187 134.803 231.2C134.803 228.213 135.389 225.813 136.563 224C137.789 222.133 139.789 220.773 142.563 219.92C145.336 219.067 149.016 218.64 153.603 218.64ZM153.523 225.92C150.589 225.92 148.563 226.32 147.443 227.12C146.323 227.867 145.763 229.227 145.763 231.2C145.763 233.173 146.323 234.56 147.443 235.36C148.563 236.16 150.589 236.56 153.523 236.56C156.456 236.56 158.456 236.16 159.523 235.36C160.589 234.56 161.123 233.173 161.123 231.2C161.123 229.227 160.589 227.867 159.523 227.12C158.456 226.32 156.456 225.92 153.523 225.92ZM176.723 219.68L176.083 224.72L165.523 226.08L162.643 219.68H176.723ZM141.603 241.28L147.523 242.32C146.776 242.747 146.243 243.413 145.923 244.32C145.656 245.227 145.736 246.08 146.163 246.88C146.589 247.68 147.523 248.16 148.963 248.32L163.523 250C167.683 250.427 170.616 251.6 172.323 253.52C174.029 255.387 174.883 258.133 174.883 261.76C174.883 265.173 174.189 267.787 172.803 269.6C171.416 271.467 169.203 272.747 166.163 273.44C163.123 274.133 159.069 274.48 154.003 274.48C149.843 274.48 146.403 274.267 143.683 273.84C141.016 273.467 138.883 272.827 137.283 271.92C135.736 271.013 134.643 269.813 134.003 268.32C133.416 266.88 133.123 265.067 133.123 262.88C133.123 261.227 133.416 259.813 134.003 258.64C134.589 257.413 135.576 256.32 136.963 255.36C138.403 254.4 140.403 253.52 142.963 252.72L148.803 250.64L153.043 252.32L149.843 254.4C148.509 255.36 147.416 256.187 146.563 256.88C145.763 257.52 145.176 258.16 144.803 258.8C144.483 259.44 144.323 260.293 144.323 261.36C144.323 262.587 144.589 263.52 145.123 264.16C145.656 264.853 146.616 265.307 148.003 265.52C149.443 265.787 151.389 265.92 153.843 265.92C156.403 265.92 158.403 265.787 159.843 265.52C161.283 265.307 162.269 264.88 162.803 264.24C163.389 263.6 163.683 262.693 163.683 261.52C163.683 260.507 163.469 259.76 163.043 259.28C162.669 258.8 162.003 258.453 161.043 258.24C160.136 257.973 158.856 257.733 157.203 257.52L144.803 256.16C142.723 255.947 141.096 255.387 139.923 254.48C138.749 253.573 137.923 252.48 137.443 251.2C137.016 249.867 136.909 248.533 137.123 247.2C137.336 245.867 137.816 244.667 138.563 243.6C139.363 242.533 140.376 241.76 141.603 241.28ZM194.087 219.68V245.68C194.087 247.333 194.434 248.507 195.127 249.2C195.874 249.893 197.047 250.24 198.647 250.24C200.3 250.24 201.927 249.947 203.527 249.36C205.18 248.72 207.207 247.733 209.607 246.4L210.567 252.88C207.687 255.387 204.86 257.253 202.087 258.48C199.314 259.707 196.46 260.32 193.527 260.32C186.007 260.32 182.247 256.64 182.247 249.28V219.68H194.087ZM220.247 219.68V259.2H210.887L209.527 251.44L208.407 250.32V219.68H220.247ZM250.789 218.64C254.095 218.64 256.895 219.093 259.189 220C261.482 220.853 263.215 222.347 264.389 224.48C265.615 226.56 266.229 229.44 266.229 233.12V259.2H256.789L255.109 250.64L254.309 249.44V233.04C254.309 231.173 253.855 229.813 252.949 228.96C252.095 228.107 250.442 227.68 247.989 227.68C245.962 227.68 243.429 227.76 240.389 227.92C237.349 228.027 234.229 228.187 231.029 228.4L229.909 220.56C231.829 220.187 234.042 219.867 236.549 219.6C239.055 219.333 241.562 219.12 244.069 218.96C246.575 218.747 248.815 218.64 250.789 218.64ZM261.349 234.88L261.269 241.52L243.669 241.6C242.229 241.6 241.189 241.947 240.549 242.64C239.962 243.333 239.669 244.267 239.669 245.44V247.36C239.669 248.693 240.042 249.733 240.789 250.48C241.535 251.173 242.735 251.52 244.389 251.52C245.775 251.52 247.269 251.227 248.869 250.64C250.522 250.053 252.149 249.227 253.749 248.16C255.349 247.093 256.762 245.84 257.989 244.4V249.52C257.509 250.32 256.789 251.333 255.829 252.56C254.922 253.733 253.749 254.907 252.309 256.08C250.869 257.2 249.189 258.16 247.269 258.96C245.349 259.76 243.162 260.16 240.709 260.16C238.309 260.16 236.149 259.733 234.229 258.88C232.309 258.027 230.789 256.773 229.669 255.12C228.549 253.467 227.989 251.413 227.989 248.96V244.88C227.989 241.733 229.055 239.28 231.189 237.52C233.322 235.76 236.255 234.88 239.989 234.88H261.349ZM293.134 218.64C297.72 218.64 301.347 219.067 304.014 219.92C306.734 220.773 308.68 222.107 309.854 223.92C311.08 225.733 311.694 228.16 311.694 231.2C311.694 234.133 311.107 236.533 309.934 238.4C308.76 240.213 306.787 241.547 304.014 242.4C301.294 243.253 297.64 243.68 293.054 243.68C288.467 243.68 284.787 243.253 282.014 242.4C279.294 241.547 277.32 240.213 276.094 238.4C274.92 236.587 274.334 234.187 274.334 231.2C274.334 228.213 274.92 225.813 276.094 224C277.32 222.133 279.32 220.773 282.094 219.92C284.867 219.067 288.547 218.64 293.134 218.64ZM293.054 225.92C290.12 225.92 288.094 226.32 286.974 227.12C285.854 227.867 285.294 229.227 285.294 231.2C285.294 233.173 285.854 234.56 286.974 235.36C288.094 236.16 290.12 236.56 293.054 236.56C295.987 236.56 297.987 236.16 299.054 235.36C300.12 234.56 300.654 233.173 300.654 231.2C300.654 229.227 300.12 227.867 299.054 227.12C297.987 226.32 295.987 225.92 293.054 225.92ZM316.254 219.68L315.614 224.72L305.054 226.08L302.174 219.68H316.254ZM281.134 241.28L287.054 242.32C286.307 242.747 285.774 243.413 285.454 244.32C285.187 245.227 285.267 246.08 285.694 246.88C286.12 247.68 287.054 248.16 288.494 248.32L303.054 250C307.214 250.427 310.147 251.6 311.854 253.52C313.56 255.387 314.414 258.133 314.414 261.76C314.414 265.173 313.72 267.787 312.334 269.6C310.947 271.467 308.734 272.747 305.694 273.44C302.654 274.133 298.6 274.48 293.534 274.48C289.374 274.48 285.934 274.267 283.214 273.84C280.547 273.467 278.414 272.827 276.814 271.92C275.267 271.013 274.174 269.813 273.534 268.32C272.947 266.88 272.654 265.067 272.654 262.88C272.654 261.227 272.947 259.813 273.534 258.64C274.12 257.413 275.107 256.32 276.494 255.36C277.934 254.4 279.934 253.52 282.494 252.72L288.334 250.64L292.574 252.32L289.374 254.4C288.04 255.36 286.947 256.187 286.094 256.88C285.294 257.52 284.707 258.16 284.334 258.8C284.014 259.44 283.854 260.293 283.854 261.36C283.854 262.587 284.12 263.52 284.654 264.16C285.187 264.853 286.147 265.307 287.534 265.52C288.974 265.787 290.92 265.92 293.374 265.92C295.934 265.92 297.934 265.787 299.374 265.52C300.814 265.307 301.8 264.88 302.334 264.24C302.92 263.6 303.214 262.693 303.214 261.52C303.214 260.507 303 259.76 302.574 259.28C302.2 258.8 301.534 258.453 300.574 258.24C299.667 257.973 298.387 257.733 296.734 257.52L284.334 256.16C282.254 255.947 280.627 255.387 279.454 254.48C278.28 253.573 277.454 252.48 276.974 251.2C276.547 249.867 276.44 248.533 276.654 247.2C276.867 245.867 277.347 244.667 278.094 243.6C278.894 242.533 279.907 241.76 281.134 241.28ZM340.269 218.64C346.936 218.64 351.709 219.787 354.589 222.08C357.523 224.32 358.989 227.68 358.989 232.16C359.043 235.787 358.136 238.507 356.269 240.32C354.403 242.08 351.176 242.96 346.589 242.96H324.509V236.32H343.309C345.123 236.32 346.269 235.947 346.749 235.2C347.283 234.4 347.549 233.307 347.549 231.92C347.496 230.053 346.936 228.773 345.869 228.08C344.856 227.333 343.123 226.96 340.669 226.96C338.483 226.96 336.776 227.253 335.549 227.84C334.323 228.427 333.469 229.547 332.989 231.2C332.509 232.853 332.269 235.253 332.269 238.4C332.269 241.707 332.563 244.267 333.149 246.08C333.736 247.84 334.723 249.067 336.109 249.76C337.549 250.453 339.523 250.8 342.029 250.8C343.843 250.8 346.083 250.747 348.749 250.64C351.469 250.48 354.189 250.24 356.909 249.92L358.029 257.2C356.483 257.947 354.723 258.533 352.749 258.96C350.776 259.387 348.749 259.68 346.669 259.84C344.589 260.053 342.589 260.16 340.669 260.16C335.656 260.16 331.603 259.44 328.509 258C325.469 256.507 323.256 254.24 321.869 251.2C320.536 248.16 319.869 244.267 319.869 239.52C319.869 234.347 320.563 230.24 321.949 227.2C323.336 224.16 325.523 221.973 328.509 220.64C331.496 219.307 335.416 218.64 340.269 218.64ZM405.891 203.2C411.065 203.2 415.118 203.733 418.051 204.8C420.985 205.867 423.065 207.707 424.291 210.32C425.571 212.933 426.211 216.587 426.211 221.28C426.211 225.973 425.598 229.627 424.371 232.24C423.198 234.853 421.251 236.693 418.531 237.76C415.811 238.773 412.131 239.28 407.491 239.28C405.038 239.28 402.638 239.173 400.291 238.96C397.945 238.747 395.758 238.48 393.731 238.16C391.705 237.84 389.971 237.52 388.531 237.2C387.091 236.827 386.105 236.48 385.571 236.16L385.811 230.08C388.958 230.08 392.211 230.08 395.571 230.08C398.985 230.08 402.345 230.08 405.651 230.08C407.785 230.027 409.438 229.76 410.611 229.28C411.838 228.8 412.691 227.92 413.171 226.64C413.705 225.36 413.971 223.573 413.971 221.28C413.971 218.933 413.705 217.12 413.171 215.84C412.691 214.56 411.838 213.68 410.611 213.2C409.438 212.667 407.785 212.4 405.651 212.4C400.745 212.4 396.531 212.427 393.011 212.48C389.491 212.533 387.118 212.64 385.891 212.8L384.691 204C386.931 203.733 389.038 203.547 391.011 203.44C392.985 203.333 395.118 203.28 397.411 203.28C399.758 203.227 402.585 203.2 405.891 203.2ZM396.931 204V259.2H384.691V204H396.931ZM442.704 219.68L444.144 227.52L445.264 228.56V259.2H433.424V219.68H442.704ZM461.984 218.64L460.864 229.6H457.584C455.718 229.6 453.771 229.867 451.744 230.4C449.718 230.933 447.158 231.733 444.064 232.8L443.264 226.16C446.038 223.707 448.838 221.84 451.664 220.56C454.491 219.28 457.238 218.64 459.904 218.64H461.984ZM488.211 218.64C491.517 218.64 494.317 219.093 496.611 220C498.904 220.853 500.637 222.347 501.811 224.48C503.037 226.56 503.651 229.44 503.651 233.12V259.2H494.211L492.531 250.64L491.731 249.44V233.04C491.731 231.173 491.277 229.813 490.371 228.96C489.517 228.107 487.864 227.68 485.411 227.68C483.384 227.68 480.851 227.76 477.811 227.92C474.771 228.027 471.651 228.187 468.451 228.4L467.331 220.56C469.251 220.187 471.464 219.867 473.971 219.6C476.477 219.333 478.984 219.12 481.491 218.96C483.997 218.747 486.237 218.64 488.211 218.64ZM498.771 234.88L498.691 241.52L481.091 241.6C479.651 241.6 478.611 241.947 477.971 242.64C477.384 243.333 477.091 244.267 477.091 245.44V247.36C477.091 248.693 477.464 249.733 478.211 250.48C478.957 251.173 480.157 251.52 481.811 251.52C483.197 251.52 484.691 251.227 486.291 250.64C487.944 250.053 489.571 249.227 491.171 248.16C492.771 247.093 494.184 245.84 495.411 244.4V249.52C494.931 250.32 494.211 251.333 493.251 252.56C492.344 253.733 491.171 254.907 489.731 256.08C488.291 257.2 486.611 258.16 484.691 258.96C482.771 259.76 480.584 260.16 478.131 260.16C475.731 260.16 473.571 259.733 471.651 258.88C469.731 258.027 468.211 256.773 467.091 255.12C465.971 253.467 465.411 251.413 465.411 248.96V244.88C465.411 241.733 466.477 239.28 468.611 237.52C470.744 235.76 473.677 234.88 477.411 234.88H498.771ZM531.356 218.64C532.796 218.64 534.369 218.72 536.076 218.88C537.782 218.987 539.489 219.227 541.196 219.6C542.956 219.92 544.556 220.4 545.996 221.04L544.716 228.48C542.582 228.427 540.529 228.373 538.556 228.32C536.636 228.267 534.902 228.24 533.356 228.24C530.956 228.24 529.062 228.56 527.676 229.2C526.289 229.84 525.276 230.987 524.636 232.64C524.049 234.24 523.756 236.48 523.756 239.36C523.756 242.293 524.049 244.587 524.636 246.24C525.276 247.893 526.289 249.04 527.676 249.68C529.062 250.32 530.956 250.64 533.356 250.64C534.209 250.64 535.302 250.613 536.636 250.56C537.969 250.507 539.409 250.453 540.956 250.4C542.502 250.293 544.022 250.133 545.516 249.92L546.636 257.44C544.502 258.4 542.076 259.093 539.356 259.52C536.636 259.947 533.942 260.16 531.276 260.16C526.369 260.16 522.449 259.493 519.516 258.16C516.636 256.773 514.556 254.56 513.276 251.52C511.996 248.48 511.356 244.427 511.356 239.36C511.356 234.293 511.996 230.24 513.276 227.2C514.609 224.16 516.742 221.973 519.676 220.64C522.609 219.307 526.502 218.64 531.356 218.64ZM569.099 208.72V246.56C569.099 248 569.419 249.04 570.059 249.68C570.752 250.267 571.872 250.56 573.419 250.56H578.539L579.819 258.56C578.859 258.88 577.685 259.147 576.299 259.36C574.912 259.627 573.525 259.813 572.139 259.92C570.752 260.08 569.579 260.16 568.619 260.16C565.045 260.16 562.245 259.2 560.219 257.28C558.245 255.36 557.259 252.667 557.259 249.2L557.179 208.72H569.099ZM580.139 219.68V227.44H550.299V220.08L557.979 219.68H580.139ZM598.551 219.68V259.2H586.791V219.68H598.551ZM595.271 202.24C597.618 202.24 598.791 203.44 598.791 205.84V210.08C598.791 212.48 597.618 213.68 595.271 213.68H590.151C587.805 213.68 586.631 212.48 586.631 210.08V205.84C586.631 203.44 587.805 202.24 590.151 202.24H595.271ZM626.981 218.64C628.421 218.64 629.994 218.72 631.701 218.88C633.407 218.987 635.114 219.227 636.821 219.6C638.581 219.92 640.181 220.4 641.621 221.04L640.341 228.48C638.207 228.427 636.154 228.373 634.181 228.32C632.261 228.267 630.527 228.24 628.981 228.24C626.581 228.24 624.687 228.56 623.301 229.2C621.914 229.84 620.901 230.987 620.261 232.64C619.674 234.24 619.381 236.48 619.381 239.36C619.381 242.293 619.674 244.587 620.261 246.24C620.901 247.893 621.914 249.04 623.301 249.68C624.687 250.32 626.581 250.64 628.981 250.64C629.834 250.64 630.927 250.613 632.261 250.56C633.594 250.507 635.034 250.453 636.581 250.4C638.127 250.293 639.647 250.133 641.141 249.92L642.261 257.44C640.127 258.4 637.701 259.093 634.981 259.52C632.261 259.947 629.567 260.16 626.901 260.16C621.994 260.16 618.074 259.493 615.141 258.16C612.261 256.773 610.181 254.56 608.901 251.52C607.621 248.48 606.981 244.427 606.981 239.36C606.981 234.293 607.621 230.24 608.901 227.2C610.234 224.16 612.367 221.973 615.301 220.64C618.234 219.307 622.127 218.64 626.981 218.64ZM667.535 218.64C674.202 218.64 678.975 219.787 681.855 222.08C684.788 224.32 686.255 227.68 686.255 232.16C686.308 235.787 685.402 238.507 683.535 240.32C681.668 242.08 678.442 242.96 673.855 242.96H651.775V236.32H670.575C672.388 236.32 673.535 235.947 674.015 235.2C674.548 234.4 674.815 233.307 674.815 231.92C674.762 230.053 674.202 228.773 673.135 228.08C672.122 227.333 670.388 226.96 667.935 226.96C665.748 226.96 664.042 227.253 662.815 227.84C661.588 228.427 660.735 229.547 660.255 231.2C659.775 232.853 659.535 235.253 659.535 238.4C659.535 241.707 659.828 244.267 660.415 246.08C661.002 247.84 661.988 249.067 663.375 249.76C664.815 250.453 666.788 250.8 669.295 250.8C671.108 250.8 673.348 250.747 676.015 250.64C678.735 250.48 681.455 250.24 684.175 249.92L685.295 257.2C683.748 257.947 681.988 258.533 680.015 258.96C678.042 259.387 676.015 259.68 673.935 259.84C671.855 260.053 669.855 260.16 667.935 260.16C662.922 260.16 658.868 259.44 655.775 258C652.735 256.507 650.522 254.24 649.135 251.2C647.802 248.16 647.135 244.267 647.135 239.52C647.135 234.347 647.828 230.24 649.215 227.2C650.602 224.16 652.788 221.973 655.775 220.64C658.762 219.307 662.682 218.64 667.535 218.64Z" fill="#2F4F4F"/>
</svg>
