<svg width="360" height="59" viewBox="0 0 360 59" fill="none" xmlns="http://www.w3.org/2000/svg">
<path d="M2.99808 0V48.4888C2.99808 50.528 3.45932 52.1141 4.61243 53.0204C5.76553 54.1533 7.37988 54.6065 9.45548 54.6065H14.0679L14.5291 56.8723C13.1454 57.3255 11.3004 57.5521 8.76361 57.5521C5.99616 57.5521 3.92056 56.8723 2.30621 55.2863C0.691864 53.7002 0 51.6609 0 48.9419V0H2.99808Z" fill="#2F4F4F"/>
<path d="M24.6767 21.5253C27.4441 18.3532 32.0566 16.7671 38.514 16.7671C44.9713 16.7671 49.5838 18.3532 52.3512 21.5253C55.1187 24.6975 56.2718 29.9089 56.2718 37.6127C56.2718 45.3166 54.8881 50.528 52.3512 53.7001C49.5838 56.8723 44.9713 58.4584 38.514 58.4584C31.8259 58.4584 27.2135 56.8723 24.6767 53.7001C21.9092 50.528 20.7561 45.3166 20.7561 37.6127C20.7561 29.9089 22.1398 24.4709 24.6767 21.5253ZM49.8144 23.5646C47.7388 21.0722 43.8182 19.7127 38.514 19.7127C33.2097 19.7127 29.5197 21.0722 27.2135 23.5646C25.1379 26.057 23.9848 30.8152 23.9848 37.3861C23.9848 43.9571 25.1379 48.7153 27.2135 51.2077C29.2891 53.7001 32.979 55.0596 38.514 55.0596C43.8182 55.0596 47.7388 53.7001 49.8144 51.2077C51.89 48.7153 53.0431 43.9571 53.0431 37.3861C53.0431 30.8152 51.89 26.057 49.8144 23.5646Z" fill="#2F4F4F"/>
<path d="M97.7838 54.1535L98.2451 56.4193C94.0939 57.5522 89.9427 58.0054 85.7915 58.0054C79.1035 58.0054 74.2604 56.4193 71.493 53.2471C68.7255 50.075 67.3418 44.8636 67.3418 37.1597C67.3418 29.4559 68.7255 24.2445 71.493 21.0723C74.2604 17.9002 79.1035 16.3141 85.7915 16.3141C90.6346 16.3141 94.5551 16.7673 97.5532 17.9002L96.8613 20.166C93.8633 19.7128 90.4039 19.2597 86.2528 19.2597C80.4872 19.2597 76.5667 20.6192 74.2604 23.1116C71.9542 25.604 70.8011 30.3622 70.8011 36.9331C70.8011 43.5041 71.9542 48.2623 74.2604 50.7547C76.5667 53.2471 80.4872 54.6066 86.2528 54.6066C90.8652 55.0598 94.7857 54.8332 97.7838 54.1535Z" fill="#2F4F4F"/>
<path d="M108.853 21.0722L108.623 18.5798C116.925 17.4468 123.382 16.7671 127.764 16.7671C135.605 16.7671 139.526 20.619 139.526 28.0962V56.8723H136.989L136.528 49.8482C134.452 51.8875 131.685 53.7001 128.225 55.2862C124.766 56.8723 121.307 57.7786 117.848 57.7786C114.388 57.7786 111.851 56.8723 109.776 55.0596C107.931 53.247 107.008 50.7545 107.008 47.5824V42.5976C107.008 39.652 107.931 37.3861 109.545 35.5735C111.39 33.9874 113.696 33.0811 116.925 33.0811H136.297V28.0962C136.297 25.3772 135.605 23.338 134.222 21.7519C132.838 20.1658 130.532 19.4861 127.303 19.4861C122.46 19.7127 116.464 20.1658 108.853 21.0722ZM110.468 42.8241V47.1292C110.468 52.114 113.004 54.6065 118.309 54.6065C121.076 54.6065 124.074 53.9267 127.534 52.5672C130.993 51.2077 133.76 49.395 136.297 47.1292V35.8001L117.386 36.0266C112.543 36.0266 110.468 38.2925 110.468 42.8241Z" fill="#2F4F4F"/>
<path d="M157.515 0V48.4888C157.515 50.528 157.976 52.1141 159.129 53.0204C160.282 54.1533 161.896 54.6065 163.972 54.6065H168.584L169.046 56.8723C167.662 57.3255 165.817 57.5521 163.28 57.5521C160.513 57.5521 158.437 56.8723 156.823 55.2863C155.208 53.7002 154.517 51.6609 154.517 48.9419V0H157.515Z" fill="#2F4F4F"/>
<path d="M176.886 21.0722L176.656 18.5798C184.958 17.4468 191.416 16.7671 195.797 16.7671C203.638 16.7671 207.559 20.619 207.559 28.0962V56.8723H205.022L204.33 49.8482C202.255 51.8875 199.487 53.7001 196.028 55.2862C192.569 56.8723 189.109 57.7786 185.65 57.7786C182.191 57.7786 179.654 56.8723 177.578 55.0596C175.733 53.247 174.811 50.7545 174.811 47.5824V42.5976C174.811 39.652 175.733 37.3861 177.348 35.5735C179.193 33.9874 181.499 33.0811 184.727 33.0811H204.1V28.0962C204.1 25.3772 203.408 23.338 202.024 21.7519C200.64 20.1658 198.334 19.4861 195.105 19.4861C190.493 19.7127 184.266 20.1658 176.886 21.0722ZM178.27 42.8241V47.1292C178.27 52.114 180.807 54.6065 186.111 54.6065C188.879 54.6065 191.877 53.9267 195.336 52.5672C198.795 51.2077 201.563 49.395 204.1 47.1292V35.8001L185.189 36.0266C180.576 36.0266 178.27 38.2925 178.27 42.8241Z" fill="#66CDAA"/>
<path d="M225.548 0V48.4888C225.548 50.528 226.009 52.1141 227.162 53.0204C228.315 54.1533 229.929 54.6065 232.005 54.6065H236.617L237.079 56.8723C235.695 57.3255 233.85 57.5521 231.313 57.5521C228.546 57.5521 226.47 56.8723 224.856 55.2863C223.241 53.7002 222.55 51.6609 222.55 48.9419V0H225.548Z" fill="#66CDAA"/>
<path d="M248.61 0V48.4888C248.61 50.528 249.071 52.1141 250.224 53.0204C251.377 54.1533 252.992 54.6065 255.067 54.6065H259.68L260.141 56.8723C258.757 57.3255 256.912 57.5521 254.375 57.5521C251.608 57.5521 249.532 56.8723 247.918 55.2863C246.304 53.7002 245.612 51.6609 245.612 48.9419V0H248.61Z" fill="#66CDAA"/>
<path d="M269.366 1.3595H270.749C271.672 1.3595 271.903 1.81266 271.903 2.719V7.70382C271.903 8.61016 271.441 9.06332 270.749 9.06332H269.366C268.443 9.06332 267.982 8.61016 267.982 7.70382V2.719C267.982 1.81266 268.443 1.3595 269.366 1.3595ZM271.672 57.0989H268.443V17.6735H271.672V57.0989Z" fill="#66CDAA"/>
<path d="M309.725 38.9722H288.277C288.507 44.8634 289.661 49.1685 292.197 51.4343C294.504 53.7001 298.194 55.0596 303.498 55.0596C308.11 55.0596 312.723 54.833 317.104 54.1533L317.566 56.4191C314.337 57.552 309.494 58.0052 303.037 58.0052C296.579 58.0052 291.967 56.4191 289.199 53.247C286.432 50.0748 285.048 44.6368 285.048 37.1596C285.048 29.6823 286.432 24.4709 288.969 21.2987C291.736 18.1266 296.118 16.7671 302.345 16.7671C312.953 16.7671 318.258 20.619 318.488 28.3228C318.488 31.9482 318.027 34.6671 316.643 36.2532C315.029 38.2925 312.953 38.9722 309.725 38.9722ZM288.277 36.4798H309.033C313.184 36.4798 315.029 33.7608 315.029 28.5494C315.029 25.6038 313.876 23.338 311.8 21.7519C309.725 20.1658 306.726 19.7127 302.345 19.7127C297.04 19.7127 293.581 20.8456 291.275 23.338C288.969 25.8304 288.507 30.1355 288.277 36.4798Z" fill="#66CDAA"/>
<path d="M350.083 39.652L336.938 37.8393C333.94 37.3861 331.864 36.4798 330.25 34.6671C328.636 32.8545 328.174 30.5887 328.174 27.4165C328.174 22.8848 329.327 19.9393 331.403 18.5798C333.709 17.2203 337.399 16.7671 342.934 16.7671C348.93 16.7671 354.235 17.2203 358.847 17.9L358.616 20.1658C352.159 19.9393 347.085 19.7127 343.395 19.4861C338.552 19.4861 335.324 19.7127 333.709 20.619C332.095 21.5253 331.172 23.5646 331.172 27.1899C331.172 29.6823 331.634 31.495 332.787 32.6279C333.94 33.7608 335.554 34.4406 337.63 34.6671L350.775 36.4798C353.773 36.933 356.08 38.0659 357.694 39.652C359.308 41.2381 360 43.5039 360 46.676C360 51.2077 358.847 54.3799 356.31 55.7394C353.773 57.0989 349.622 57.7786 343.857 57.7786C338.552 57.7786 333.479 57.552 329.097 56.8723L329.327 54.6065C334.17 55.0596 338.783 55.0596 343.626 55.0596C348.7 55.0596 352.159 54.3799 354.004 53.4735C355.849 52.5672 356.771 50.3014 356.771 46.9026C356.771 44.4102 356.08 42.8241 354.926 41.6912C354.004 40.7849 352.39 39.8786 350.083 39.652Z" fill="#66CDAA"/>
</svg>
