{
	"asset":{
		"generator":"Khronos glTF Blender I/O v4.2.70",
		"version":"2.0"
	},
	"scene":0,
	"scenes":[
		{
			"name":"Scene",
			"nodes":[
				0
			]
		}
	],
	"nodes":[
		{
			"mesh":0,
			"name":"Plane.002",
			"translation":[
				0,
				0.7444123029708862,
				0.4139843285083771
			]
		}
	],
	"materials":[
		{
			"doubleSided":true,
			"emissiveTexture":{
				"index":0
			},
			"name":"roll_cage",
			"normalTexture":{
				"index":1,
				"scale":0.10000000149011612
			},
			"pbrMetallicRoughness":{
				"baseColorTexture":{
					"index":2
				},
				"metallicRoughnessTexture":{
					"index":3
				}
			}
		}
	],
	"meshes":[
		{
			"name":"Plane.002",
			"primitives":[
				{
					"attributes":{
						"POSITION":0,
						"NORMAL":1,
						"TEXCOORD_0":2
					},
					"indices":3,
					"material":0
				}
			]
		}
	],
	"textures":[
		{
			"sampler":0,
			"source":0
		},
		{
			"sampler":0,
			"source":1
		},
		{
			"sampler":0,
			"source":2
		},
		{
			"sampler":0,
			"source":3
		}
	],
	"images":[
		{
			"mimeType":"image/png",
			"name":"roll_cage_UV_Emissive",
			"uri":"roll_cage_UV_Emissive.png"
		},
		{
			"mimeType":"image/png",
			"name":"roll_cage_UV_Normal",
			"uri":"roll_cage_UV_Normal.png"
		},
		{
			"mimeType":"image/png",
			"name":"roll_cage_UV_BaseColor",
			"uri":"roll_cage_UV_BaseColor.png"
		},
		{
			"mimeType":"image/png",
			"name":"roll_cage_UV_Metallic-roll_cage_UV_Roughness",
			"uri":"roll_cage_UV_Metallic-roll_cage_UV_Roughness.png"
		}
	],
	"accessors":[
		{
			"bufferView":0,
			"componentType":5126,
			"count":7538,
			"max":[
				1.1138660907745361,
				1.2068307399749756,
				1.990635871887207
			],
			"min":[
				-1.1137499809265137,
				-0.2663736343383789,
				-2.207573890686035
			],
			"type":"VEC3"
		},
		{
			"bufferView":1,
			"componentType":5126,
			"count":7538,
			"type":"VEC3"
		},
		{
			"bufferView":2,
			"componentType":5126,
			"count":7538,
			"type":"VEC2"
		},
		{
			"bufferView":3,
			"componentType":5123,
			"count":16140,
			"type":"SCALAR"
		}
	],
	"bufferViews":[
		{
			"buffer":0,
			"byteLength":90456,
			"byteOffset":0,
			"target":34962
		},
		{
			"buffer":0,
			"byteLength":90456,
			"byteOffset":90456,
			"target":34962
		},
		{
			"buffer":0,
			"byteLength":60304,
			"byteOffset":180912,
			"target":34962
		},
		{
			"buffer":0,
			"byteLength":32280,
			"byteOffset":241216,
			"target":34963
		}
	],
	"samplers":[
		{
			"magFilter":9729,
			"minFilter":9987
		}
	],
	"buffers":[
		{
			"byteLength":273496,
			"uri":"dunebuggy4.bin"
		}
	]
}
