{
	"asset":{
		"generator":"Khronos glTF Blender I/O v4.2.70",
		"version":"2.0"
	},
	"scene":0,
	"scenes":[
		{
			"name":"Scene",
			"nodes":[
				0,
				1,
				2,
				3,
				4
			]
		}
	],
	"nodes":[
		{
			"mesh":0,
			"name":"Plane.002",
			"translation":[
				0,
				0.7444123029708862,
				0.4139843285083771
			]
		},
		{
			"mesh":1,
			"name":"Plane.008",
			"translation":[
				0,
				0.7444123029708862,
				0.4139843285083771
			]
		},
		{
			"mesh":2,
			"name":"Plane.009",
			"translation":[
				0,
				0.7444123029708862,
				0.4139843285083771
			]
		},
		{
			"mesh":3,
			"name":"Plane.020",
			"translation":[
				0,
				0.7444123029708862,
				0.4139843285083771
			]
		},
		{
			"mesh":4,
			"name":"Plane.022",
			"translation":[
				0,
				0.7444123029708862,
				0.4139843285083771
			]
		}
	],
	"materials":[
		{
			"doubleSided":true,
			"emissiveTexture":{
				"index":0
			},
			"name":"roll_cage",
			"normalTexture":{
				"index":1,
				"scale":0.10000000149011612
			},
			"pbrMetallicRoughness":{
				"baseColorTexture":{
					"index":2
				},
				"metallicRoughnessTexture":{
					"index":3
				}
			}
		},
		{
			"doubleSided":true,
			"emissiveTexture":{
				"index":4
			},
			"name":"driveaft",
			"normalTexture":{
				"index":5
			},
			"pbrMetallicRoughness":{
				"baseColorTexture":{
					"index":6
				},
				"metallicRoughnessTexture":{
					"index":7
				}
			}
		},
		{
			"doubleSided":true,
			"emissiveTexture":{
				"index":8
			},
			"name":"shiled_for_engine",
			"normalTexture":{
				"index":9
			},
			"pbrMetallicRoughness":{
				"baseColorTexture":{
					"index":10
				},
				"metallicRoughnessTexture":{
					"index":11
				}
			}
		},
		{
			"doubleSided":true,
			"emissiveTexture":{
				"index":12
			},
			"name":"dahborad_interor ",
			"normalTexture":{
				"index":13
			},
			"pbrMetallicRoughness":{
				"baseColorTexture":{
					"index":14
				},
				"metallicRoughnessTexture":{
					"index":15
				}
			}
		}
	],
	"meshes":[
		{
			"name":"Plane.002",
			"primitives":[
				{
					"attributes":{
						"POSITION":0,
						"NORMAL":1,
						"TEXCOORD_0":2
					},
					"indices":3,
					"material":0
				}
			]
		},
		{
			"name":"Plane.008",
			"primitives":[
				{
					"attributes":{
						"POSITION":4,
						"NORMAL":5,
						"TEXCOORD_0":6
					},
					"indices":7,
					"material":1
				}
			]
		},
		{
			"name":"Plane.009",
			"primitives":[
				{
					"attributes":{
						"POSITION":8,
						"NORMAL":9,
						"TEXCOORD_0":10
					},
					"indices":11,
					"material":1
				}
			]
		},
		{
			"name":"Plane.020",
			"primitives":[
				{
					"attributes":{
						"POSITION":12,
						"NORMAL":13,
						"TEXCOORD_0":14
					},
					"indices":15,
					"material":2
				}
			]
		},
		{
			"name":"Plane.022",
			"primitives":[
				{
					"attributes":{
						"POSITION":16,
						"NORMAL":17,
						"TEXCOORD_0":18
					},
					"indices":19,
					"material":3
				}
			]
		}
	],
	"textures":[
		{
			"sampler":0,
			"source":0
		},
		{
			"sampler":0,
			"source":1
		},
		{
			"sampler":0,
			"source":2
		},
		{
			"sampler":0,
			"source":3
		},
		{
			"sampler":0,
			"source":4
		},
		{
			"sampler":0,
			"source":5
		},
		{
			"sampler":0,
			"source":6
		},
		{
			"sampler":0,
			"source":7
		},
		{
			"sampler":0,
			"source":8
		},
		{
			"sampler":0,
			"source":9
		},
		{
			"sampler":0,
			"source":10
		},
		{
			"sampler":0,
			"source":11
		},
		{
			"sampler":0,
			"source":12
		},
		{
			"sampler":0,
			"source":13
		},
		{
			"sampler":0,
			"source":14
		},
		{
			"sampler":0,
			"source":15
		}
	],
	"images":[
		{
			"mimeType":"image/png",
			"name":"roll_cage_UV_Emissive",
			"uri":"roll_cage_UV_Emissive.png"
		},
		{
			"mimeType":"image/png",
			"name":"roll_cage_UV_Normal",
			"uri":"roll_cage_UV_Normal.png"
		},
		{
			"mimeType":"image/png",
			"name":"roll_cage_UV_BaseColor",
			"uri":"roll_cage_UV_BaseColor.png"
		},
		{
			"mimeType":"image/png",
			"name":"roll_cage_UV_Metallic-roll_cage_UV_Roughness",
			"uri":"roll_cage_UV_Metallic-roll_cage_UV_Roughness.png"
		},
		{
			"mimeType":"image/png",
			"name":"drivesaft_UV_Emissive",
			"uri":"drivesaft_UV_Emissive.png"
		},
		{
			"mimeType":"image/png",
			"name":"drivesaft_UV_Normal",
			"uri":"drivesaft_UV_Normal.png"
		},
		{
			"mimeType":"image/png",
			"name":"drivesaft_UV_BaseColor",
			"uri":"drivesaft_UV_BaseColor.png"
		},
		{
			"mimeType":"image/png",
			"name":"drivesaft_UV_Metallic-drivesaft_UV_Roughness",
			"uri":"drivesaft_UV_Metallic-drivesaft_UV_Roughness.png"
		},
		{
			"mimeType":"image/png",
			"name":"metal_Shiled_for_engine_UV_Emissive",
			"uri":"metal_Shiled_for_engine_UV_Emissive.png"
		},
		{
			"mimeType":"image/png",
			"name":"metal_Shiled_for_engine_UV_Normal",
			"uri":"metal_Shiled_for_engine_UV_Normal.png"
		},
		{
			"mimeType":"image/png",
			"name":"metal_Shiled_for_engine_UV_BaseColor",
			"uri":"metal_Shiled_for_engine_UV_BaseColor.png"
		},
		{
			"mimeType":"image/png",
			"name":"metal_Shiled_for_engine_UV_Metallic-metal_Shiled_for_engine_UV_Roughness",
			"uri":"metal_Shiled_for_engine_UV_Metallic-metal_Shiled_for_engine_UV_Roughness.png"
		},
		{
			"mimeType":"image/png",
			"name":"inteiror_dashbord_UV_Emissive",
			"uri":"inteiror_dashbord_UV_Emissive.png"
		},
		{
			"mimeType":"image/png",
			"name":"inteiror_dashbord_UV_Normal",
			"uri":"inteiror_dashbord_UV_Normal.png"
		},
		{
			"mimeType":"image/png",
			"name":"inteiror_dashbord_UV_BaseColor",
			"uri":"inteiror_dashbord_UV_BaseColor.png"
		},
		{
			"mimeType":"image/png",
			"name":"inteiror_dashbord_UV_Metallic-inteiror_dashbord_UV_Roughness",
			"uri":"inteiror_dashbord_UV_Metallic-inteiror_dashbord_UV_Roughness.png"
		}
	],
	"accessors":[
		{
			"bufferView":0,
			"componentType":5126,
			"count":7538,
			"max":[
				1.1138660907745361,
				1.2068307399749756,
				1.990635871887207
			],
			"min":[
				-1.1137499809265137,
				-0.2663736343383789,
				-2.207573890686035
			],
			"type":"VEC3"
		},
		{
			"bufferView":1,
			"componentType":5126,
			"count":7538,
			"type":"VEC3"
		},
		{
			"bufferView":2,
			"componentType":5126,
			"count":7538,
			"type":"VEC2"
		},
		{
			"bufferView":3,
			"componentType":5123,
			"count":16140,
			"type":"SCALAR"
		},
		{
			"bufferView":4,
			"componentType":5126,
			"count":867,
			"max":[
				1.2480558156967163,
				-0.22420549392700195,
				1.5512351989746094
			],
			"min":[
				-1.2480558156967163,
				-0.48458850383758545,
				1.1969984769821167
			],
			"type":"VEC3"
		},
		{
			"bufferView":5,
			"componentType":5126,
			"count":867,
			"type":"VEC3"
		},
		{
			"bufferView":6,
			"componentType":5126,
			"count":867,
			"type":"VEC2"
		},
		{
			"bufferView":7,
			"componentType":5123,
			"count":1728,
			"type":"SCALAR"
		},
		{
			"bufferView":8,
			"componentType":5126,
			"count":3688,
			"max":[
				1.2757697105407715,
				-0.14546281099319458,
				-1.3607656955718994
			],
			"min":[
				-1.2757697105407715,
				-0.4555473327636719,
				-1.8625699281692505
			],
			"type":"VEC3"
		},
		{
			"bufferView":9,
			"componentType":5126,
			"count":3688,
			"type":"VEC3"
		},
		{
			"bufferView":10,
			"componentType":5126,
			"count":3688,
			"type":"VEC2"
		},
		{
			"bufferView":11,
			"componentType":5123,
			"count":9072,
			"type":"SCALAR"
		},
		{
			"bufferView":12,
			"componentType":5126,
			"count":925,
			"max":[
				1.1638795137405396,
				-0.047502368688583374,
				2.0867834091186523
			],
			"min":[
				-1.163882851600647,
				-0.4230532646179199,
				-1.4799704551696777
			],
			"type":"VEC3"
		},
		{
			"bufferView":13,
			"componentType":5126,
			"count":925,
			"type":"VEC3"
		},
		{
			"bufferView":14,
			"componentType":5126,
			"count":925,
			"type":"VEC2"
		},
		{
			"bufferView":15,
			"componentType":5123,
			"count":2760,
			"type":"SCALAR"
		},
		{
			"bufferView":16,
			"componentType":5126,
			"count":3002,
			"max":[
				0.9248409271240234,
				0.6902568936347961,
				0.9393396973609924
			],
			"min":[
				-0.9248429536819458,
				-0.1272711306810379,
				-0.5008463263511658
			],
			"type":"VEC3"
		},
		{
			"bufferView":17,
			"componentType":5126,
			"count":3002,
			"type":"VEC3"
		},
		{
			"bufferView":18,
			"componentType":5126,
			"count":3002,
			"type":"VEC2"
		},
		{
			"bufferView":19,
			"componentType":5123,
			"count":16917,
			"type":"SCALAR"
		}
	],
	"bufferViews":[
		{
			"buffer":0,
			"byteLength":90456,
			"byteOffset":0,
			"target":34962
		},
		{
			"buffer":0,
			"byteLength":90456,
			"byteOffset":90456,
			"target":34962
		},
		{
			"buffer":0,
			"byteLength":60304,
			"byteOffset":180912,
			"target":34962
		},
		{
			"buffer":0,
			"byteLength":32280,
			"byteOffset":241216,
			"target":34963
		},
		{
			"buffer":0,
			"byteLength":10404,
			"byteOffset":273496,
			"target":34962
		},
		{
			"buffer":0,
			"byteLength":10404,
			"byteOffset":283900,
			"target":34962
		},
		{
			"buffer":0,
			"byteLength":6936,
			"byteOffset":294304,
			"target":34962
		},
		{
			"buffer":0,
			"byteLength":3456,
			"byteOffset":301240,
			"target":34963
		},
		{
			"buffer":0,
			"byteLength":44256,
			"byteOffset":304696,
			"target":34962
		},
		{
			"buffer":0,
			"byteLength":44256,
			"byteOffset":348952,
			"target":34962
		},
		{
			"buffer":0,
			"byteLength":29504,
			"byteOffset":393208,
			"target":34962
		},
		{
			"buffer":0,
			"byteLength":18144,
			"byteOffset":422712,
			"target":34963
		},
		{
			"buffer":0,
			"byteLength":11100,
			"byteOffset":440856,
			"target":34962
		},
		{
			"buffer":0,
			"byteLength":11100,
			"byteOffset":451956,
			"target":34962
		},
		{
			"buffer":0,
			"byteLength":7400,
			"byteOffset":463056,
			"target":34962
		},
		{
			"buffer":0,
			"byteLength":5520,
			"byteOffset":470456,
			"target":34963
		},
		{
			"buffer":0,
			"byteLength":36024,
			"byteOffset":475976,
			"target":34962
		},
		{
			"buffer":0,
			"byteLength":36024,
			"byteOffset":512000,
			"target":34962
		},
		{
			"buffer":0,
			"byteLength":24016,
			"byteOffset":548024,
			"target":34962
		},
		{
			"buffer":0,
			"byteLength":33834,
			"byteOffset":572040,
			"target":34963
		}
	],
	"samplers":[
		{
			"magFilter":9729,
			"minFilter":9987
		}
	],
	"buffers":[
		{
			"byteLength":605876,
			"uri":"dunebuggy3.bin"
		}
	]
}
