<?xml version="1.0" encoding="utf-8"?>
<!-- Generator: Adobe Illustrator 16.0.0, SVG Export Plug-In . SVG Version: 6.00 Build 0)  -->
<!DOCTYPE svg PUBLIC "-//W3C//DTD SVG 1.1//EN" "http://www.w3.org/Graphics/SVG/1.1/DTD/svg11.dtd">
<svg version="1.1" id="Layer_1" xmlns="http://www.w3.org/2000/svg" xmlns:xlink="http://www.w3.org/1999/xlink" x="0px" y="0px"
	 width="145px" height="30px" viewBox="0 0 145 30" enable-background="new 0 0 145 30" xml:space="preserve">
<g>
	<g>
		<g>
			<g>
				<path fill="#231F20" d="M69.773,6.089c0-0.348,0.124-0.645,0.371-0.893c0.248-0.247,0.549-0.371,0.903-0.371
					c0.347,0,0.645,0.126,0.893,0.377c0.247,0.251,0.371,0.554,0.371,0.908c0,0.348-0.122,0.644-0.366,0.887
					c-0.244,0.244-0.543,0.366-0.898,0.366c-0.354,0-0.656-0.122-0.903-0.366C69.897,6.754,69.773,6.45,69.773,6.089z
					 M70.184,21.118V10.977h1.751v10.142H70.184z"/>
				<path fill="#231F20" d="M75.592,21.118V10.977h1.696v1.563c0.437-0.649,0.96-1.134,1.573-1.452
					c0.613-0.317,1.323-0.477,2.129-0.477c1.197,0,2.132,0.318,2.805,0.954c0.672,0.635,1.008,1.518,1.008,2.648v6.905h-1.773
					v-5.975c0-1.026-0.216-1.789-0.648-2.288c-0.432-0.499-1.099-0.748-2-0.748c-0.518,0-0.988,0.094-1.414,0.282
					c-0.424,0.188-0.777,0.456-1.059,0.804c-0.214,0.266-0.367,0.569-0.459,0.909c-0.093,0.34-0.139,0.931-0.139,1.773v5.242H75.592
					z"/>
				<path fill="#231F20" d="M87.164,19.411l1.485-0.998c0.28,0.54,0.636,0.945,1.063,1.215c0.43,0.27,0.936,0.404,1.52,0.404
					c0.568,0,1.028-0.141,1.379-0.422c0.352-0.28,0.527-0.65,0.527-1.107c0-0.355-0.121-0.65-0.36-0.887
					c-0.24-0.236-0.652-0.455-1.235-0.654l-0.289-0.1c-2.468-0.85-3.701-1.914-3.701-3.192c0-0.901,0.332-1.637,0.997-2.206
					c0.665-0.568,1.529-0.854,2.593-0.854c0.88,0,1.634,0.176,2.262,0.527c0.628,0.351,1.079,0.848,1.353,1.49l-1.407,0.864
					c-0.207-0.465-0.512-0.823-0.915-1.075c-0.403-0.251-0.87-0.376-1.402-0.376c-0.51,0-0.925,0.142-1.247,0.427
					c-0.321,0.284-0.482,0.648-0.482,1.092c0,0.62,0.673,1.142,2.018,1.563c0.252,0.081,0.451,0.144,0.599,0.188
					c1.101,0.355,1.868,0.76,2.3,1.215c0.433,0.454,0.648,1.055,0.648,1.801c0,0.961-0.342,1.738-1.025,2.333
					s-1.575,0.892-2.676,0.892c-0.947,0-1.75-0.177-2.411-0.531C88.094,20.663,87.563,20.128,87.164,19.411z"/>
				<path fill="#231F20" d="M97.162,6.089c0-0.348,0.123-0.645,0.371-0.893c0.248-0.247,0.549-0.371,0.903-0.371
					c0.347,0,0.645,0.126,0.893,0.377C99.576,5.453,99.7,5.756,99.7,6.11c0,0.348-0.122,0.644-0.366,0.887
					c-0.243,0.244-0.543,0.366-0.897,0.366s-0.655-0.122-0.903-0.366C97.285,6.754,97.162,6.45,97.162,6.089z M97.572,21.118V10.977
					h1.751v10.142H97.572z"/>
				<path fill="#231F20" d="M112.424,10.977v9.964c0,1.102-0.073,1.885-0.221,2.35c-0.148,0.467-0.393,0.883-0.732,1.253
					c-0.473,0.511-1.051,0.891-1.734,1.142c-0.684,0.252-1.469,0.377-2.355,0.377c-1.537,0-2.735-0.352-3.596-1.053
					c-0.861-0.702-1.311-1.695-1.348-2.982h1.951v0.134c0,0.761,0.262,1.349,0.787,1.763c0.524,0.413,1.268,0.62,2.228,0.62
					c0.694,0,1.288-0.112,1.779-0.338s0.866-0.56,1.125-1.003c0.155-0.252,0.267-0.543,0.333-0.876s0.1-0.81,0.1-1.43v-0.798v-0.909
					c-0.393,0.725-0.906,1.28-1.541,1.669c-0.636,0.387-1.349,0.581-2.139,0.581c-1.457,0-2.629-0.495-3.52-1.485
					s-1.336-2.305-1.336-3.945c0-1.655,0.432-2.969,1.297-3.94s2.021-1.458,3.469-1.458c0.843,0,1.582,0.19,2.217,0.571
					c0.636,0.381,1.139,0.94,1.508,1.679v-1.884H112.424z M110.74,16.075c0-1.139-0.311-2.054-0.932-2.749
					c-0.621-0.694-1.438-1.042-2.449-1.042c-1.042,0-1.855,0.321-2.438,0.965c-0.584,0.643-0.876,1.54-0.876,2.693
					c0,1.227,0.294,2.172,0.881,2.837c0.588,0.665,1.421,0.997,2.5,0.997c1.034,0,1.846-0.326,2.433-0.98
					S110.74,17.235,110.74,16.075z"/>
				<path fill="#231F20" d="M115.938,21.118V3.938h1.696v8.601c0.437-0.649,0.96-1.134,1.573-1.452
					c0.613-0.317,1.323-0.477,2.129-0.477c1.197,0,2.132,0.318,2.805,0.954c0.672,0.635,1.008,1.518,1.008,2.648v6.905h-1.773
					v-5.975c0-1.026-0.216-1.789-0.648-2.288c-0.432-0.499-1.099-0.748-2-0.748c-0.518,0-0.988,0.094-1.414,0.282
					c-0.424,0.188-0.777,0.456-1.059,0.804c-0.214,0.266-0.367,0.569-0.459,0.909c-0.093,0.34-0.139,0.931-0.139,1.773v5.242
					H115.938z"/>
				<path fill="#231F20" d="M128.852,12.406h-1.863v-1.43h1.863v-4.09h1.773v4.09h1.861v1.43h-1.861v8.712h-1.773V12.406z"/>
				<path fill="#231F20" d="M133.385,19.411l1.484-0.998c0.281,0.54,0.636,0.945,1.064,1.215s0.935,0.404,1.519,0.404
					c0.569,0,1.028-0.141,1.38-0.422c0.352-0.28,0.526-0.65,0.526-1.107c0-0.355-0.12-0.65-0.36-0.887s-0.652-0.455-1.235-0.654
					l-0.288-0.1c-2.469-0.85-3.702-1.914-3.702-3.192c0-0.901,0.333-1.637,0.997-2.206c0.666-0.568,1.529-0.854,2.594-0.854
					c0.879,0,1.633,0.176,2.262,0.527c0.627,0.351,1.078,0.848,1.352,1.49l-1.407,0.864c-0.207-0.465-0.512-0.823-0.915-1.075
					c-0.402-0.251-0.869-0.376-1.402-0.376c-0.51,0-0.925,0.142-1.246,0.427c-0.322,0.284-0.482,0.648-0.482,1.092
					c0,0.62,0.672,1.142,2.018,1.563c0.251,0.081,0.45,0.144,0.598,0.188c1.102,0.355,1.868,0.76,2.301,1.215
					c0.432,0.454,0.648,1.055,0.648,1.801c0,0.961-0.342,1.738-1.025,2.333s-1.576,0.892-2.677,0.892
					c-0.946,0-1.749-0.177-2.411-0.531C134.313,20.663,133.783,20.128,133.385,19.411z"/>
			</g>
			<path fill-rule="evenodd" clip-rule="evenodd" fill="#231F20" d="M60.749,21.511v-4.01l0,0c0.353,0,0.647-0.125,0.867-0.379
				c0.218-0.256,0.329-0.585,0.329-0.998c0-0.416-0.111-0.744-0.329-1.002c-0.22-0.242-0.501-0.364-0.867-0.364l0,0v-4.01l0,0
				c0.792,0,1.523,0.121,2.208,0.352c0.668,0.245,1.278,0.586,1.827,1.037c0.585,0.5,1.049,1.098,1.365,1.791
				c0.317,0.695,0.477,1.429,0.477,2.196c0,0.754-0.159,1.484-0.477,2.168c-0.316,0.693-0.78,1.307-1.39,1.827
				c-0.524,0.452-1.134,0.806-1.802,1.036C62.272,21.401,61.541,21.511,60.749,21.511L60.749,21.511z M60.749,10.748v4.01
				c-0.367,0-0.644,0.122-0.865,0.364c-0.219,0.258-0.328,0.586-0.328,1.002c0,0.413,0.109,0.754,0.328,0.998
				c0.221,0.254,0.498,0.379,0.865,0.379v4.01c-0.78,0-1.511-0.109-2.193-0.341c-0.669-0.245-1.279-0.585-1.815-1.051
				c-0.597-0.499-1.062-1.108-1.391-1.804c-0.329-0.693-0.486-1.438-0.486-2.191c0-0.768,0.158-1.501,0.486-2.184
				c0.329-0.694,0.793-1.304,1.391-1.804c0.536-0.451,1.146-0.804,1.815-1.037C59.237,10.869,59.968,10.748,60.749,10.748
				L60.749,10.748z M35.798,21.511v-4.01l0,0c0.354,0,0.647-0.125,0.866-0.379c0.219-0.256,0.328-0.585,0.328-0.998
				c0-0.416-0.108-0.744-0.328-1.002c-0.219-0.242-0.5-0.364-0.866-0.364l0,0v-4.01l0,0c0.793,0,1.525,0.121,2.207,0.352
				c0.669,0.245,1.281,0.586,1.829,1.037c0.584,0.5,1.049,1.098,1.378,1.791c0.317,0.695,0.476,1.429,0.476,2.196
				c0,0.754-0.159,1.484-0.476,2.168c-0.329,0.693-0.793,1.307-1.401,1.827c-0.524,0.452-1.136,0.806-1.805,1.036
				C37.323,21.401,36.591,21.511,35.798,21.511L35.798,21.511L35.798,21.511z M46.037,21.132l-4.328-10.056h5.182l0.997,3.475
				c0.112,0.378,0.196,0.683,0.258,0.913c0.048,0.22,0.085,0.416,0.096,0.598c0.038-0.28,0.135-0.705,0.294-1.267
				c0.037-0.11,0.06-0.195,0.072-0.232l0.987-3.486h5.242l-4.363,10.056H46.037z M3.912,21.132V11.076h4.742v1.391
				c0.425-0.585,0.901-1.013,1.415-1.292c0.512-0.281,1.083-0.427,1.731-0.427c1.072,0,1.925,0.328,2.546,0.975
				c0.622,0.646,0.94,1.523,0.94,2.645v6.765h-4.888v-5.083c0-0.499-0.063-0.841-0.161-1.036c-0.107-0.182-0.291-0.277-0.546-0.277
				c-0.281,0-0.501,0.107-0.646,0.326c-0.158,0.22-0.233,0.549-0.233,0.987v5.083H3.912L3.912,21.132z M35.798,10.748v4.01
				c-0.365,0-0.646,0.122-0.864,0.364c-0.221,0.258-0.328,0.586-0.328,1.002c0,0.413,0.107,0.754,0.328,0.998
				c0.219,0.254,0.499,0.379,0.864,0.379v4.01c-0.779,0-1.51-0.109-2.192-0.341c-0.673-0.245-1.281-0.585-1.818-1.051
				c-0.597-0.499-1.061-1.108-1.389-1.804c-0.329-0.693-0.489-1.438-0.489-2.191c0-0.768,0.16-1.501,0.489-2.184
				c0.328-0.694,0.792-1.304,1.389-1.804c0.537-0.451,1.145-0.804,1.818-1.037C34.288,10.869,35.019,10.748,35.798,10.748
				L35.798,10.748z M17.173,11.076h4.815v4.911c0,0.707,0.061,1.171,0.17,1.365c0.123,0.209,0.329,0.318,0.635,0.318
				c0.29,0,0.486-0.099,0.609-0.295c0.109-0.193,0.17-0.656,0.17-1.389v-4.911h4.802v5.411c0,1.744-0.45,3.012-1.341,3.818
				c-0.889,0.802-2.316,1.205-4.241,1.205c-1.951,0-3.365-0.403-4.267-1.205c-0.902-0.807-1.354-2.074-1.354-3.818V11.076z"/>
		</g>
	</g>
</g>
</svg>
