{
	"asset":{
		"generator":"Khronos glTF Blender I/O v5.0.21",
		"version":"2.0"
	},
	"scene":0,
	"scenes":[
		{
			"name":"Scene",
			"nodes":[
				14
			]
		}
	],
	"nodes":[
		{
			"mesh":0,
			"name":"Cockpit_Cockpit_Material_0"
		},
		{
			"mesh":1,
			"name":"Cyclic",
			"translation":[
				52.2183837890625,
				134.3080596923828,
				153.27548217773438
			]
		},
		{
			"children":[
				0,
				1
			],
			"name":"Cockpit"
		},
		{
			"mesh":2,
			"name":"Glass_Glass_Material_0"
		},
		{
			"children":[
				3
			],
			"name":"Glass"
		},
		{
			"mesh":3,
			"name":"Helicopter_Helicopter_Material_0"
		},
		{
			"mesh":4,
			"name":"Tail_Rotor_Helicopter_Material_0",
			"translation":[
				0,
				0,
				1.3222070265328512e-05
			]
		},
		{
			"children":[
				6
			],
			"name":"Tail_Rotor",
			"translation":[
				48.22100067138672,
				283.6099853515625,
				-712.9940185546875
			]
		},
		{
			"mesh":5,
			"name":"Top_rotor_Helicopter_Material_0",
			"translation":[
				0,
				2.8720280170091428e-05,
				0
			]
		},
		{
			"children":[
				8
			],
			"name":"Top_rotor",
			"translation":[
				0,
				445.2200012207031,
				-10.66100025177002
			]
		},
		{
			"children":[
				2,
				4,
				5,
				7,
				9
			],
			"name":"Helicopter",
			"scale":[
				0.010000000707805157,
				0.009999999776482582,
				0.009999999776482582
			]
		},
		{
			"children":[
				10
			],
			"name":"RootNode"
		},
		{
			"children":[
				11
			],
			"name":"Object_2"
		},
		{
			"children":[
				12
			],
			"name":"aab255878c444e24af63b2845ae2c519.fbx",
			"rotation":[
				0.70710688829422,
				0,
				0,
				0.7071066498756409
			]
		},
		{
			"children":[
				13
			],
			"name":"Sketchfab_model",
			"rotation":[
				-0.7071067690849304,
				0,
				0,
				0.7071068286895752
			],
			"scale":[
				0.6315295100212097,
				0.6315295100212097,
				0.6315295100212097
			]
		}
	],
	"animations":[
		{
			"channels":[
				{
					"sampler":0,
					"target":{
						"node":7,
						"path":"rotation"
					}
				},
				{
					"sampler":1,
					"target":{
						"node":9,
						"path":"rotation"
					}
				}
			],
			"name":"Rotor Rotation",
			"samplers":[
				{
					"input":24,
					"interpolation":"LINEAR",
					"output":25
				},
				{
					"input":24,
					"interpolation":"LINEAR",
					"output":26
				}
			]
		}
	],
	"materials":[
		{
			"doubleSided":true,
			"emissiveFactor":[
				1,
				1,
				1
			],
			"emissiveTexture":{
				"index":0
			},
			"name":"Cockpit_Material",
			"pbrMetallicRoughness":{
				"baseColorTexture":{
					"index":1
				},
				"metallicFactor":0.2077651470899582
			}
		},
		{
			"alphaMode":"BLEND",
			"doubleSided":true,
			"name":"Glass_Material",
			"pbrMetallicRoughness":{
				"baseColorFactor":[
					0.1545524299144745,
					0.21860015392303467,
					0.26497113704681396,
					0.35587120056152344
				],
				"metallicFactor":0,
				"roughnessFactor":0
			}
		},
		{
			"doubleSided":true,
			"name":"Helicopter_Material",
			"pbrMetallicRoughness":{
				"baseColorTexture":{
					"index":2
				},
				"metallicFactor":0.5835227370262146
			}
		}
	],
	"meshes":[
		{
			"name":"Cockpit_Cockpit_Material_0",
			"primitives":[
				{
					"attributes":{
						"POSITION":0,
						"NORMAL":1,
						"TEXCOORD_0":2
					},
					"indices":3,
					"material":0
				}
			]
		},
		{
			"name":"Cockpit_Cockpit_Material_0.001",
			"primitives":[
				{
					"attributes":{
						"POSITION":4,
						"NORMAL":5,
						"TEXCOORD_0":6
					},
					"indices":7,
					"material":0
				}
			]
		},
		{
			"name":"Glass_Glass_Material_0",
			"primitives":[
				{
					"attributes":{
						"POSITION":8,
						"NORMAL":9,
						"TEXCOORD_0":10
					},
					"indices":11,
					"material":1
				}
			]
		},
		{
			"name":"Helicopter_Helicopter_Material_0",
			"primitives":[
				{
					"attributes":{
						"POSITION":12,
						"NORMAL":13,
						"TEXCOORD_0":14
					},
					"indices":15,
					"material":2
				}
			]
		},
		{
			"name":"Tail_Rotor_Helicopter_Material_0",
			"primitives":[
				{
					"attributes":{
						"POSITION":16,
						"NORMAL":17,
						"TEXCOORD_0":18
					},
					"indices":19,
					"material":2
				}
			]
		},
		{
			"name":"Top_rotor_Helicopter_Material_0",
			"primitives":[
				{
					"attributes":{
						"POSITION":20,
						"NORMAL":21,
						"TEXCOORD_0":22
					},
					"indices":23,
					"material":2
				}
			]
		}
	],
	"textures":[
		{
			"sampler":0,
			"source":0
		},
		{
			"sampler":0,
			"source":1
		},
		{
			"sampler":0,
			"source":2
		}
	],
	"images":[
		{
			"mimeType":"image/png",
			"name":"Cockpit_Material_emissive",
			"uri":"Cockpit_Material_emissive.png"
		},
		{
			"mimeType":"image/png",
			"name":"Cockpit_Material_baseColor",
			"uri":"Cockpit_Material_baseColor.png"
		},
		{
			"mimeType":"image/png",
			"name":"Helicopter_Material_baseColor",
			"uri":"Helicopter_Material_baseColor.png"
		}
	],
	"accessors":[
		{
			"bufferView":0,
			"componentType":5126,
			"count":657,
			"max":[
				109.29900360107422,
				352.5780029296875,
				283.3089904785156
			],
			"min":[
				-107.0979995727539,
				110.08399963378906,
				-164.40699768066406
			],
			"type":"VEC3"
		},
		{
			"bufferView":1,
			"componentType":5126,
			"count":657,
			"type":"VEC3"
		},
		{
			"bufferView":2,
			"componentType":5126,
			"count":657,
			"type":"VEC2"
		},
		{
			"bufferView":3,
			"componentType":5123,
			"count":1935,
			"type":"SCALAR"
		},
		{
			"bufferView":4,
			"componentType":5126,
			"count":59,
			"max":[
				1.2466163635253906,
				91.50193786621094,
				18.922531127929688
			],
			"min":[
				-6.270381927490234,
				-3.654052734375,
				-3.7744598388671875
			],
			"type":"VEC3"
		},
		{
			"bufferView":5,
			"componentType":5126,
			"count":59,
			"type":"VEC3"
		},
		{
			"bufferView":6,
			"componentType":5126,
			"count":59,
			"type":"VEC2"
		},
		{
			"bufferView":7,
			"componentType":5123,
			"count":204,
			"type":"SCALAR"
		},
		{
			"bufferView":8,
			"componentType":5126,
			"count":118,
			"max":[
				110.87498474121094,
				352.4891357421875,
				281.29302978515625
			],
			"min":[
				-109.23809814453125,
				113.7590103149414,
				-79.89600372314453
			],
			"type":"VEC3"
		},
		{
			"bufferView":9,
			"componentType":5126,
			"count":118,
			"type":"VEC3"
		},
		{
			"bufferView":10,
			"componentType":5126,
			"count":118,
			"type":"VEC2"
		},
		{
			"bufferView":11,
			"componentType":5123,
			"count":312,
			"type":"SCALAR"
		},
		{
			"bufferView":12,
			"componentType":5126,
			"count":644,
			"max":[
				269.1780090332031,
				491.8179931640625,
				285.677001953125
			],
			"min":[
				-269.1780090332031,
				0.4350000023841858,
				-812.0479736328125
			],
			"type":"VEC3"
		},
		{
			"bufferView":13,
			"componentType":5126,
			"count":644,
			"type":"VEC3"
		},
		{
			"bufferView":14,
			"componentType":5126,
			"count":644,
			"type":"VEC2"
		},
		{
			"bufferView":15,
			"componentType":5123,
			"count":2157,
			"type":"SCALAR"
		},
		{
			"bufferView":16,
			"componentType":5126,
			"count":72,
			"max":[
				0,
				93.89700317382812,
				97.2969970703125
			],
			"min":[
				-44.42100143432617,
				-94.60298156738281,
				-97.89996337890625
			],
			"type":"VEC3"
		},
		{
			"bufferView":17,
			"componentType":5126,
			"count":72,
			"type":"VEC3"
		},
		{
			"bufferView":18,
			"componentType":5126,
			"count":72,
			"type":"VEC2"
		},
		{
			"bufferView":19,
			"componentType":5123,
			"count":213,
			"type":"SCALAR"
		},
		{
			"bufferView":20,
			"componentType":5126,
			"count":265,
			"max":[
				588.2520141601562,
				0,
				513.8248901367188
			],
			"min":[
				-577.163818359375,
				-73.62899780273438,
				-616.1676025390625
			],
			"type":"VEC3"
		},
		{
			"bufferView":21,
			"componentType":5126,
			"count":265,
			"type":"VEC3"
		},
		{
			"bufferView":22,
			"componentType":5126,
			"count":265,
			"type":"VEC2"
		},
		{
			"bufferView":23,
			"componentType":5123,
			"count":774,
			"type":"SCALAR"
		},
		{
			"bufferView":24,
			"componentType":5126,
			"count":30,
			"max":[
				1.25
			],
			"min":[
				0.041666666666666664
			],
			"type":"SCALAR"
		},
		{
			"bufferView":25,
			"componentType":5126,
			"count":30,
			"type":"VEC4"
		},
		{
			"bufferView":26,
			"componentType":5126,
			"count":30,
			"type":"VEC4"
		}
	],
	"bufferViews":[
		{
			"buffer":0,
			"byteLength":7884,
			"byteOffset":0,
			"target":34962
		},
		{
			"buffer":0,
			"byteLength":7884,
			"byteOffset":7884,
			"target":34962
		},
		{
			"buffer":0,
			"byteLength":5256,
			"byteOffset":15768,
			"target":34962
		},
		{
			"buffer":0,
			"byteLength":3870,
			"byteOffset":21024,
			"target":34963
		},
		{
			"buffer":0,
			"byteLength":708,
			"byteOffset":24896,
			"target":34962
		},
		{
			"buffer":0,
			"byteLength":708,
			"byteOffset":25604,
			"target":34962
		},
		{
			"buffer":0,
			"byteLength":472,
			"byteOffset":26312,
			"target":34962
		},
		{
			"buffer":0,
			"byteLength":408,
			"byteOffset":26784,
			"target":34963
		},
		{
			"buffer":0,
			"byteLength":1416,
			"byteOffset":27192,
			"target":34962
		},
		{
			"buffer":0,
			"byteLength":1416,
			"byteOffset":28608,
			"target":34962
		},
		{
			"buffer":0,
			"byteLength":944,
			"byteOffset":30024,
			"target":34962
		},
		{
			"buffer":0,
			"byteLength":624,
			"byteOffset":30968,
			"target":34963
		},
		{
			"buffer":0,
			"byteLength":7728,
			"byteOffset":31592,
			"target":34962
		},
		{
			"buffer":0,
			"byteLength":7728,
			"byteOffset":39320,
			"target":34962
		},
		{
			"buffer":0,
			"byteLength":5152,
			"byteOffset":47048,
			"target":34962
		},
		{
			"buffer":0,
			"byteLength":4314,
			"byteOffset":52200,
			"target":34963
		},
		{
			"buffer":0,
			"byteLength":864,
			"byteOffset":56516,
			"target":34962
		},
		{
			"buffer":0,
			"byteLength":864,
			"byteOffset":57380,
			"target":34962
		},
		{
			"buffer":0,
			"byteLength":576,
			"byteOffset":58244,
			"target":34962
		},
		{
			"buffer":0,
			"byteLength":426,
			"byteOffset":58820,
			"target":34963
		},
		{
			"buffer":0,
			"byteLength":3180,
			"byteOffset":59248,
			"target":34962
		},
		{
			"buffer":0,
			"byteLength":3180,
			"byteOffset":62428,
			"target":34962
		},
		{
			"buffer":0,
			"byteLength":2120,
			"byteOffset":65608,
			"target":34962
		},
		{
			"buffer":0,
			"byteLength":1548,
			"byteOffset":67728,
			"target":34963
		},
		{
			"buffer":0,
			"byteLength":120,
			"byteOffset":69276
		},
		{
			"buffer":0,
			"byteLength":480,
			"byteOffset":69396
		},
		{
			"buffer":0,
			"byteLength":480,
			"byteOffset":69876
		}
	],
	"samplers":[
		{
			"magFilter":9729,
			"minFilter":9987
		}
	],
	"buffers":[
		{
			"byteLength":70356,
			"uri":"helicopter.bin"
		}
	]
}
