{
  "accessors": [
    {
      "bufferView": 2,
      "componentType": 5126,
      "count": 637,
      "max": [
        269.1780090332031,
        491.8179931640625,
        285.677001953125
      ],
      "min": [
        -269.1780090332031,
        0.4350000023841858,
        -812.0479736328125
      ],
      "type": "VEC3"
    },
    {
      "bufferView": 2,
      "byteOffset": 7644,
      "componentType": 5126,
      "count": 637,
      "max": [
        0.9999646544456482,
        1.0,
        1.0
      ],
      "min": [
        -0.999964714050293,
        -0.9999736547470093,
        -1.0
      ],
      "type": "VEC3"
    },
    {
      "bufferView": 1,
      "componentType": 5126,
      "count": 637,
      "max": [
        0.997219979763031,
        0.99617999792099
      ],
      "min": [
        0.0024999999441206455,
        0.0031399999279528856
      ],
      "type": "VEC2"
    },
    {
      "bufferView": 0,
      "componentType": 5125,
      "count": 2157,
      "type": "SCALAR"
    },
    {
      "bufferView": 2,
      "byteOffset": 15288,
      "componentType": 5126,
      "count": 265,
      "max": [
        588.2520141601563,
        0.0,
        513.8248901367188
      ],
      "min": [
        -577.163818359375,
        -73.62899780273438,
        -616.1676025390625
      ],
      "type": "VEC3"
    },
    {
      "bufferView": 2,
      "byteOffset": 18468,
      "componentType": 5126,
      "count": 265,
      "max": [
        1.0,
        1.0,
        0.9539587497711182
      ],
      "min": [
        -0.9348086714744568,
        -1.0,
        -0.9513868689537048
      ],
      "type": "VEC3"
    },
    {
      "bufferView": 1,
      "byteOffset": 5096,
      "componentType": 5126,
      "count": 265,
      "max": [
        0.995169997215271,
        0.9955800175666809
      ],
      "min": [
        0.011749999597668648,
        0.06656999886035919
      ],
      "type": "VEC2"
    },
    {
      "bufferView": 0,
      "byteOffset": 8628,
      "componentType": 5125,
      "count": 774,
      "type": "SCALAR"
    },
    {
      "bufferView": 2,
      "byteOffset": 21648,
      "componentType": 5126,
      "count": 72,
      "max": [
        0.0,
        93.89700317382813,
        97.2969970703125
      ],
      "min": [
        -44.42100143432617,
        -94.60298156738281,
        -97.89996337890625
      ],
      "type": "VEC3"
    },
    {
      "bufferView": 2,
      "byteOffset": 22512,
      "componentType": 5126,
      "count": 72,
      "max": [
        1.0,
        1.0,
        0.9510514140129089
      ],
      "min": [
        -0.7459030151367188,
        -0.8199445605278015,
        -0.951044499874115
      ],
      "type": "VEC3"
    },
    {
      "bufferView": 1,
      "byteOffset": 7216,
      "componentType": 5126,
      "count": 72,
      "max": [
        0.8788099884986877,
        0.8404099941253662
      ],
      "min": [
        0.42372000217437744,
        0.5933300256729126
      ],
      "type": "VEC2"
    },
    {
      "bufferView": 0,
      "byteOffset": 11724,
      "componentType": 5125,
      "count": 213,
      "type": "SCALAR"
    },
    {
      "bufferView": 2,
      "byteOffset": 23376,
      "componentType": 5126,
      "count": 716,
      "max": [
        109.29900360107422,
        352.5780029296875,
        283.3089904785156
      ],
      "min": [
        -107.0979995727539,
        110.08399963378906,
        -164.40699768066406
      ],
      "type": "VEC3"
    },
    {
      "bufferView": 2,
      "byteOffset": 31968,
      "componentType": 5126,
      "count": 716,
      "max": [
        1.0,
        0.9974650740623474,
        1.0
      ],
      "min": [
        -1.0,
        -0.9992682933807373,
        -0.9941465258598328
      ],
      "type": "VEC3"
    },
    {
      "bufferView": 1,
      "byteOffset": 7792,
      "componentType": 5126,
      "count": 716,
      "max": [
        0.9973363876342773,
        0.9978094100952148
      ],
      "min": [
        0.0020936131477355957,
        0.0032470226287841797
      ],
      "type": "VEC2"
    },
    {
      "bufferView": 0,
      "byteOffset": 12576,
      "componentType": 5125,
      "count": 2139,
      "type": "SCALAR"
    },
    {
      "bufferView": 2,
      "byteOffset": 40560,
      "componentType": 5126,
      "count": 118,
      "max": [
        110.87498474121094,
        352.4891357421875,
        281.29302978515625
      ],
      "min": [
        -109.23809814453125,
        113.7590103149414,
        -79.89600372314453
      ],
      "type": "VEC3"
    },
    {
      "bufferView": 2,
      "byteOffset": 41976,
      "componentType": 5126,
      "count": 118,
      "max": [
        0.9974145293235779,
        0.9903954267501831,
        0.969714343547821
      ],
      "min": [
        -0.9982404112815857,
        -0.8817752599716187,
        -0.18185089528560638
      ],
      "type": "VEC3"
    },
    {
      "bufferView": 1,
      "byteOffset": 13520,
      "componentType": 5126,
      "count": 118,
      "max": [
        0.5049399733543396,
        0.9889000058174133
      ],
      "min": [
        0.005040000192821026,
        0.0035800000187009573
      ],
      "type": "VEC2"
    },
    {
      "bufferView": 0,
      "byteOffset": 21132,
      "componentType": 5125,
      "count": 312,
      "type": "SCALAR"
    },
    {
      "bufferView": 3,
      "componentType": 5126,
      "count": 37,
      "max": [
        1.25
      ],
      "min": [
        0.0416666679084301
      ],
      "type": "SCALAR"
    },
    {
      "bufferView": 4,
      "componentType": 5126,
      "count": 37,
      "max": [
        8.331248647837317e-17,
        0.999941349029541,
        8.331248647837317e-17,
        1.0
      ],
      "min": [
        -8.613742738424997e-17,
        -0.7894903421401978,
        -8.613742738424997e-17,
        -0.48743936419487
      ],
      "type": "VEC4"
    },
    {
      "bufferView": 3,
      "byteOffset": 148,
      "componentType": 5126,
      "count": 37,
      "max": [
        1.25
      ],
      "min": [
        0.0416666679084301
      ],
      "type": "SCALAR"
    },
    {
      "bufferView": 4,
      "byteOffset": 592,
      "componentType": 5126,
      "count": 37,
      "max": [
        0.9985334277153015,
        0.0,
        0.0,
        1.0
      ],
      "min": [
        -0.827688992023468,
        0.0,
        0.0,
        -0.46840837597846985
      ],
      "type": "VEC4"
    }
  ],
  "animations": [
    {
      "channels": [
        {
          "sampler": 0,
          "target": {
            "node": 6,
            "path": "rotation"
          }
        },
        {
          "sampler": 1,
          "target": {
            "node": 8,
            "path": "rotation"
          }
        }
      ],
      "name": "Rotor Rotation",
      "samplers": [
        {
          "input": 20,
          "interpolation": "LINEAR",
          "output": 21
        },
        {
          "input": 22,
          "interpolation": "LINEAR",
          "output": 23
        }
      ]
    }
  ],
  "asset": {
    "extras": {
      "author": "Duane's Mind (https://sketchfab.com/duanesmind)",
      "license": "CC-BY-4.0 (http://creativecommons.org/licenses/by/4.0/)",
      "source": "https://sketchfab.com/3d-models/md-500-defender-helicopter-da5daae0fe354269895b58c2ed72e2b8",
      "title": "MD-500 Defender Helicopter"
    },
    "generator": "Sketchfab-12.68.0",
    "version": "2.0"
  },
  "bufferViews": [
    {
      "buffer": 0,
      "byteLength": 22380,
      "name": "floatBufferViews",
      "target": 34963
    },
    {
      "buffer": 0,
      "byteLength": 14464,
      "byteOffset": 22380,
      "byteStride": 8,
      "name": "floatBufferViews",
      "target": 34962
    },
    {
      "buffer": 0,
      "byteLength": 43392,
      "byteOffset": 36844,
      "byteStride": 12,
      "name": "floatBufferViews",
      "target": 34962
    },
    {
      "buffer": 0,
      "byteLength": 296,
      "byteOffset": 80236,
      "name": "floatBufferViews"
    },
    {
      "buffer": 0,
      "byteLength": 1184,
      "byteOffset": 80532,
      "byteStride": 16,
      "name": "floatBufferViews"
    }
  ],
  "buffers": [
    {
      "byteLength": 81716,
      "uri": "scene.bin"
    }
  ],
  "images": [
    {
      "uri": "textures/Helicopter_Material_baseColor.png"
    },
    {
      "uri": "textures/Cockpit_Material_baseColor.png"
    },
    {
      "uri": "textures/Cockpit_Material_emissive.png"
    }
  ],
  "materials": [
    {
      "doubleSided": true,
      "name": "Helicopter_Material",
      "pbrMetallicRoughness": {
        "baseColorTexture": {
          "index": 0
        },
        "metallicFactor": 0.5835227273
      }
    },
    {
      "doubleSided": true,
      "emissiveFactor": [
        1.0,
        1.0,
        1.0
      ],
      "emissiveTexture": {
        "index": 2
      },
      "name": "Cockpit_Material",
      "pbrMetallicRoughness": {
        "baseColorTexture": {
          "index": 1
        },
        "metallicFactor": 0.2077651515
      }
    },
    {
      "alphaMode": "BLEND",
      "doubleSided": true,
      "name": "Glass_Material",
      "pbrMetallicRoughness": {
        "baseColorFactor": [
          0.1545524328,
          0.218600154,
          0.2649711234,
          0.3558712121
        ],
        "metallicFactor": 0.0,
        "roughnessFactor": 0.0
      }
    }
  ],
  "meshes": [
    {
      "name": "Helicopter_Helicopter_Material_0",
      "primitives": [
        {
          "attributes": {
            "NORMAL": 1,
            "POSITION": 0,
            "TEXCOORD_0": 2
          },
          "indices": 3,
          "material": 0,
          "mode": 4
        }
      ]
    },
    {
      "name": "Top_rotor_Helicopter_Material_0",
      "primitives": [
        {
          "attributes": {
            "NORMAL": 5,
            "POSITION": 4,
            "TEXCOORD_0": 6
          },
          "indices": 7,
          "material": 0,
          "mode": 4
        }
      ]
    },
    {
      "name": "Tail_Rotor_Helicopter_Material_0",
      "primitives": [
        {
          "attributes": {
            "NORMAL": 9,
            "POSITION": 8,
            "TEXCOORD_0": 10
          },
          "indices": 11,
          "material": 0,
          "mode": 4
        }
      ]
    },
    {
      "name": "Cockpit_Cockpit_Material_0",
      "primitives": [
        {
          "attributes": {
            "NORMAL": 13,
            "POSITION": 12,
            "TEXCOORD_0": 14
          },
          "indices": 15,
          "material": 1,
          "mode": 4
        }
      ]
    },
    {
      "name": "Glass_Glass_Material_0",
      "primitives": [
        {
          "attributes": {
            "NORMAL": 17,
            "POSITION": 16,
            "TEXCOORD_0": 18
          },
          "indices": 19,
          "material": 2,
          "mode": 4
        }
      ]
    }
  ],
  "nodes": [
    {
      "children": [
        1
      ],
      "matrix": [
        0.6315295100212097,
        0.0,
        0.0,
        0.0,
        0.0,
        1.402277205511581e-16,
        -0.6315295100212097,
        0.0,
        0.0,
        0.6315295100212097,
        1.402277205511581e-16,
        0.0,
        0.0,
        0.0,
        0.0,
        1.0
      ],
      "name": "Sketchfab_model"
    },
    {
      "children": [
        2
      ],
      "matrix": [
        1.0,
        0.0,
        0.0,
        0.0,
        0.0,
        0.0,
        1.0,
        0.0,
        0.0,
        -1.0,
        0.0,
        0.0,
        0.0,
        0.0,
        0.0,
        1.0
      ],
      "name": "aab255878c444e24af63b2845ae2c519.fbx"
    },
    {
      "children": [
        3
      ],
      "name": "Object_2"
    },
    {
      "children": [
        4
      ],
      "name": "RootNode"
    },
    {
      "children": [
        5,
        6,
        8,
        10,
        12
      ],
      "name": "Helicopter",
      "scale": [
        0.009999999776482582,
        0.009999999776482582,
        0.009999999776482582
      ]
    },
    {
      "mesh": 0,
      "name": "Helicopter_Helicopter_Material_0"
    },
    {
      "children": [
        7
      ],
      "name": "Top_rotor",
      "translation": [
        0.0,
        445.2200012207031,
        -10.66100025177002
      ]
    },
    {
      "mesh": 1,
      "name": "Top_rotor_Helicopter_Material_0"
    },
    {
      "children": [
        9
      ],
      "name": "Tail_Rotor",
      "translation": [
        48.22100067138672,
        283.6099853515625,
        -712.9940185546875
      ]
    },
    {
      "mesh": 2,
      "name": "Tail_Rotor_Helicopter_Material_0"
    },
    {
      "children": [
        11
      ],
      "name": "Cockpit"
    },
    {
      "mesh": 3,
      "name": "Cockpit_Cockpit_Material_0"
    },
    {
      "children": [
        13
      ],
      "name": "Glass"
    },
    {
      "mesh": 4,
      "name": "Glass_Glass_Material_0"
    }
  ],
  "samplers": [
    {
      "magFilter": 9729,
      "minFilter": 9987,
      "wrapS": 10497,
      "wrapT": 10497
    }
  ],
  "scene": 0,
  "scenes": [
    {
      "name": "Sketchfab_Scene",
      "nodes": [
        0
      ]
    }
  ],
  "textures": [
    {
      "sampler": 0,
      "source": 0
    },
    {
      "sampler": 0,
      "source": 1
    },
    {
      "sampler": 0,
      "source": 2
    }
  ]
}
