{
	"asset":{
		"generator":"Khronos glTF Blender I/O v5.0.21",
		"version":"2.0"
	},
	"scene":0,
	"scenes":[
		{
			"name":"Scene",
			"nodes":[
				5,
				6
			]
		}
	],
	"nodes":[
		{
			"mesh":0,
			"name":"Glass"
		},
		{
			"mesh":1,
			"name":"WheelFL",
			"translation":[
				0.7163370251655579,
				0.3112524151802063,
				1.3360675573349
			]
		},
		{
			"mesh":2,
			"name":"WheelFR",
			"translation":[
				-0.7163370251655579,
				0.31125253438949585,
				1.3360675573349
			]
		},
		{
			"mesh":3,
			"name":"WheelRL",
			"translation":[
				0.7032262682914734,
				0.3502141833305359,
				-1.1005102396011353
			]
		},
		{
			"mesh":4,
			"name":"WheelRR",
			"translation":[
				-0.7032262682914734,
				0.35021427273750305,
				-1.1005102396011353
			]
		},
		{
			"children":[
				0,
				1,
				2,
				3,
				4
			],
			"mesh":5,
			"name":"Body"
		},
		{
			"mesh":6,
			"name":"SteeringWheel",
			"translation":[
				0.3048440217971802,
				0.8196690082550049,
				0.2104761153459549
			]
		}
	],
	"materials":[
		{
			"alphaMode":"BLEND",
			"name":"Glass",
			"pbrMetallicRoughness":{
				"baseColorTexture":{
					"index":0
				},
				"metallicRoughnessTexture":{
					"index":1
				}
			}
		},
		{
			"doubleSided":true,
			"name":"Wheels",
			"pbrMetallicRoughness":{
				"baseColorTexture":{
					"index":2
				},
				"metallicRoughnessTexture":{
					"index":3
				}
			}
		},
		{
			"doubleSided":true,
			"name":"Interior",
			"pbrMetallicRoughness":{
				"baseColorTexture":{
					"index":4
				},
				"metallicRoughnessTexture":{
					"index":5
				}
			}
		},
		{
			"doubleSided":true,
			"name":"Body",
			"pbrMetallicRoughness":{
				"baseColorTexture":{
					"index":6
				},
				"metallicRoughnessTexture":{
					"index":7
				}
			}
		}
	],
	"meshes":[
		{
			"name":"Plane.006",
			"primitives":[
				{
					"attributes":{
						"POSITION":0,
						"NORMAL":1,
						"TEXCOORD_0":2
					},
					"indices":3,
					"material":0
				}
			]
		},
		{
			"name":"Circle.001",
			"primitives":[
				{
					"attributes":{
						"POSITION":4,
						"NORMAL":5,
						"TEXCOORD_0":6
					},
					"indices":7,
					"material":1
				}
			]
		},
		{
			"name":"Circle",
			"primitives":[
				{
					"attributes":{
						"POSITION":8,
						"NORMAL":9,
						"TEXCOORD_0":10
					},
					"indices":11,
					"material":1
				}
			]
		},
		{
			"name":"Circle.004",
			"primitives":[
				{
					"attributes":{
						"POSITION":12,
						"NORMAL":13,
						"TEXCOORD_0":14
					},
					"indices":15,
					"material":1
				}
			]
		},
		{
			"name":"Circle.002",
			"primitives":[
				{
					"attributes":{
						"POSITION":16,
						"NORMAL":17,
						"TEXCOORD_0":18
					},
					"indices":19,
					"material":1
				}
			]
		},
		{
			"name":"BodyMesh",
			"primitives":[
				{
					"attributes":{
						"POSITION":20,
						"NORMAL":21,
						"TEXCOORD_0":22
					},
					"indices":23,
					"material":2
				},
				{
					"attributes":{
						"POSITION":24,
						"NORMAL":25,
						"TEXCOORD_0":26
					},
					"indices":27,
					"material":3
				}
			]
		},
		{
			"name":"BodyMesh.001",
			"primitives":[
				{
					"attributes":{
						"POSITION":28,
						"NORMAL":29,
						"TEXCOORD_0":30
					},
					"indices":31,
					"material":2
				}
			]
		}
	],
	"textures":[
		{
			"sampler":0,
			"source":0
		},
		{
			"sampler":0,
			"source":1
		},
		{
			"sampler":0,
			"source":2
		},
		{
			"sampler":0,
			"source":3
		},
		{
			"sampler":0,
			"source":4
		},
		{
			"sampler":0,
			"source":5
		},
		{
			"sampler":0,
			"source":6
		},
		{
			"sampler":0,
			"source":7
		}
	],
	"images":[
		{
			"mimeType":"image/png",
			"name":"sportcar.017_Glass_BaseColor",
			"uri":"sportcar.017_Glass_BaseColor.png"
		},
		{
			"mimeType":"image/png",
			"name":"sportcar.017_Glass_Metallic-sportcar.017_Glass_Roughness",
			"uri":"sportcar.017_Glass_Metallic-sportcar.017_Glass_Roughness.png"
		},
		{
			"mimeType":"image/png",
			"name":"sportcar.017_Wheels_BaseColor",
			"uri":"sportcar.017_Wheels_BaseColor.png"
		},
		{
			"mimeType":"image/png",
			"name":"sportcar.017_Wheels_Metallic-sportcar.017_Wheels_Roughness",
			"uri":"sportcar.017_Wheels_Metallic-sportcar.017_Wheels_Roughness.png"
		},
		{
			"mimeType":"image/png",
			"name":"sportcar.017_Interior_BaseColor",
			"uri":"sportcar.017_Interior_BaseColor.png"
		},
		{
			"mimeType":"image/png",
			"name":"sportcar.017_Interior_Metallic-sportcar.017_Interior_Roughness",
			"uri":"sportcar.017_Interior_Metallic-sportcar.017_Interior_Roughness.png"
		},
		{
			"mimeType":"image/png",
			"name":"sportcar.017_Body_BaseColor",
			"uri":"sportcar.017_Body_BaseColor.png"
		},
		{
			"mimeType":"image/png",
			"name":"sportcar.017_Body_Metallic-sportcar.017_Body_Roughness",
			"uri":"sportcar.017_Body_Metallic-sportcar.017_Body_Roughness.png"
		}
	],
	"accessors":[
		{
			"bufferView":0,
			"componentType":5126,
			"count":260,
			"max":[
				0.8748535513877869,
				1.2698460817337036,
				1.9968050718307495
			],
			"min":[
				-0.8748535513877869,
				0.6310759782791138,
				-1.706344723701477
			],
			"type":"VEC3"
		},
		{
			"bufferView":1,
			"componentType":5126,
			"count":260,
			"type":"VEC3"
		},
		{
			"bufferView":2,
			"componentType":5126,
			"count":260,
			"type":"VEC2"
		},
		{
			"bufferView":3,
			"componentType":5123,
			"count":636,
			"type":"SCALAR"
		},
		{
			"bufferView":4,
			"componentType":5126,
			"count":769,
			"max":[
				0.20300650596618652,
				0.31385424733161926,
				0.31385427713394165
			],
			"min":[
				-0.005574643611907959,
				-0.31385427713394165,
				-0.31385424733161926
			],
			"type":"VEC3"
		},
		{
			"bufferView":5,
			"componentType":5126,
			"count":769,
			"type":"VEC3"
		},
		{
			"bufferView":6,
			"componentType":5126,
			"count":769,
			"type":"VEC2"
		},
		{
			"bufferView":7,
			"componentType":5123,
			"count":1200,
			"type":"SCALAR"
		},
		{
			"bufferView":8,
			"componentType":5126,
			"count":769,
			"max":[
				0.005574643611907959,
				0.3138542175292969,
				0.31385427713394165
			],
			"min":[
				-0.20300650596618652,
				-0.31385430693626404,
				-0.31385424733161926
			],
			"type":"VEC3"
		},
		{
			"bufferView":9,
			"componentType":5126,
			"count":769,
			"type":"VEC3"
		},
		{
			"bufferView":10,
			"componentType":5126,
			"count":769,
			"type":"VEC2"
		},
		{
			"bufferView":11,
			"componentType":5123,
			"count":1200,
			"type":"SCALAR"
		},
		{
			"bufferView":12,
			"componentType":5126,
			"count":769,
			"max":[
				0.24673867225646973,
				0.35241952538490295,
				0.3524196147918701
			],
			"min":[
				-0.00547260046005249,
				-0.3524196445941925,
				-0.35241958498954773
			],
			"type":"VEC3"
		},
		{
			"bufferView":13,
			"componentType":5126,
			"count":769,
			"type":"VEC3"
		},
		{
			"bufferView":14,
			"componentType":5126,
			"count":769,
			"type":"VEC2"
		},
		{
			"bufferView":15,
			"componentType":5123,
			"count":1200,
			"type":"SCALAR"
		},
		{
			"bufferView":16,
			"componentType":5126,
			"count":769,
			"max":[
				0.00547260046005249,
				0.35241952538490295,
				0.3524196147918701
			],
			"min":[
				-0.24673867225646973,
				-0.3524196445941925,
				-0.35241958498954773
			],
			"type":"VEC3"
		},
		{
			"bufferView":17,
			"componentType":5126,
			"count":769,
			"type":"VEC3"
		},
		{
			"bufferView":18,
			"componentType":5126,
			"count":769,
			"type":"VEC2"
		},
		{
			"bufferView":19,
			"componentType":5123,
			"count":1200,
			"type":"SCALAR"
		},
		{
			"bufferView":20,
			"componentType":5126,
			"count":770,
			"max":[
				0.7636280655860901,
				1.2758208513259888,
				0.6617040634155273
			],
			"min":[
				-0.7636280655860901,
				0.2785170078277588,
				-1.311888575553894
			],
			"type":"VEC3"
		},
		{
			"bufferView":21,
			"componentType":5126,
			"count":770,
			"type":"VEC3"
		},
		{
			"bufferView":22,
			"componentType":5126,
			"count":770,
			"type":"VEC2"
		},
		{
			"bufferView":23,
			"componentType":5123,
			"count":1494,
			"type":"SCALAR"
		},
		{
			"bufferView":24,
			"componentType":5126,
			"count":4392,
			"max":[
				0.966627836227417,
				1.317612648010254,
				2.2047512531280518
			],
			"min":[
				-0.966627836227417,
				0.14671389758586884,
				-1.875124454498291
			],
			"type":"VEC3"
		},
		{
			"bufferView":25,
			"componentType":5126,
			"count":4392,
			"type":"VEC3"
		},
		{
			"bufferView":26,
			"componentType":5126,
			"count":4392,
			"type":"VEC2"
		},
		{
			"bufferView":27,
			"componentType":5123,
			"count":7800,
			"type":"SCALAR"
		},
		{
			"bufferView":28,
			"componentType":5126,
			"count":260,
			"max":[
				0.16775980591773987,
				0.16468632221221924,
				0.0613677054643631
			],
			"min":[
				-0.1691785454750061,
				-0.15436267852783203,
				-0.05875740945339203
			],
			"type":"VEC3"
		},
		{
			"bufferView":29,
			"componentType":5126,
			"count":260,
			"type":"VEC3"
		},
		{
			"bufferView":30,
			"componentType":5126,
			"count":260,
			"type":"VEC2"
		},
		{
			"bufferView":31,
			"componentType":5123,
			"count":396,
			"type":"SCALAR"
		}
	],
	"bufferViews":[
		{
			"buffer":0,
			"byteLength":3120,
			"byteOffset":0,
			"target":34962
		},
		{
			"buffer":0,
			"byteLength":3120,
			"byteOffset":3120,
			"target":34962
		},
		{
			"buffer":0,
			"byteLength":2080,
			"byteOffset":6240,
			"target":34962
		},
		{
			"buffer":0,
			"byteLength":1272,
			"byteOffset":8320,
			"target":34963
		},
		{
			"buffer":0,
			"byteLength":9228,
			"byteOffset":9592,
			"target":34962
		},
		{
			"buffer":0,
			"byteLength":9228,
			"byteOffset":18820,
			"target":34962
		},
		{
			"buffer":0,
			"byteLength":6152,
			"byteOffset":28048,
			"target":34962
		},
		{
			"buffer":0,
			"byteLength":2400,
			"byteOffset":34200,
			"target":34963
		},
		{
			"buffer":0,
			"byteLength":9228,
			"byteOffset":36600,
			"target":34962
		},
		{
			"buffer":0,
			"byteLength":9228,
			"byteOffset":45828,
			"target":34962
		},
		{
			"buffer":0,
			"byteLength":6152,
			"byteOffset":55056,
			"target":34962
		},
		{
			"buffer":0,
			"byteLength":2400,
			"byteOffset":61208,
			"target":34963
		},
		{
			"buffer":0,
			"byteLength":9228,
			"byteOffset":63608,
			"target":34962
		},
		{
			"buffer":0,
			"byteLength":9228,
			"byteOffset":72836,
			"target":34962
		},
		{
			"buffer":0,
			"byteLength":6152,
			"byteOffset":82064,
			"target":34962
		},
		{
			"buffer":0,
			"byteLength":2400,
			"byteOffset":88216,
			"target":34963
		},
		{
			"buffer":0,
			"byteLength":9228,
			"byteOffset":90616,
			"target":34962
		},
		{
			"buffer":0,
			"byteLength":9228,
			"byteOffset":99844,
			"target":34962
		},
		{
			"buffer":0,
			"byteLength":6152,
			"byteOffset":109072,
			"target":34962
		},
		{
			"buffer":0,
			"byteLength":2400,
			"byteOffset":115224,
			"target":34963
		},
		{
			"buffer":0,
			"byteLength":9240,
			"byteOffset":117624,
			"target":34962
		},
		{
			"buffer":0,
			"byteLength":9240,
			"byteOffset":126864,
			"target":34962
		},
		{
			"buffer":0,
			"byteLength":6160,
			"byteOffset":136104,
			"target":34962
		},
		{
			"buffer":0,
			"byteLength":2988,
			"byteOffset":142264,
			"target":34963
		},
		{
			"buffer":0,
			"byteLength":52704,
			"byteOffset":145252,
			"target":34962
		},
		{
			"buffer":0,
			"byteLength":52704,
			"byteOffset":197956,
			"target":34962
		},
		{
			"buffer":0,
			"byteLength":35136,
			"byteOffset":250660,
			"target":34962
		},
		{
			"buffer":0,
			"byteLength":15600,
			"byteOffset":285796,
			"target":34963
		},
		{
			"buffer":0,
			"byteLength":3120,
			"byteOffset":301396,
			"target":34962
		},
		{
			"buffer":0,
			"byteLength":3120,
			"byteOffset":304516,
			"target":34962
		},
		{
			"buffer":0,
			"byteLength":2080,
			"byteOffset":307636,
			"target":34962
		},
		{
			"buffer":0,
			"byteLength":792,
			"byteOffset":309716,
			"target":34963
		}
	],
	"samplers":[
		{
			"magFilter":9729,
			"minFilter":9987
		}
	],
	"buffers":[
		{
			"byteLength":310508,
			"uri":"sportcar.017-2.bin"
		}
	]
}
